<svg id="svg" version="1.1" viewBox="0 0 300 300" width="300" height="300" xmlns="http://www.w3.org/2000/svg"><svg xmlns="http://www.w3.org/2000/svg"><defs><clipPath id="clip-1"><rect x="0" y="0" transform="scale(0.14648,0.14648)" width="2048" height="2048" fill="none"/></clipPath></defs><g clip-path="url(#clip-1)" fill="none" fill-rule="nonzero" stroke="none" stroke-width="1" stroke-linecap="butt" stroke-linejoin="miter" stroke-miterlimit="10" stroke-dasharray="" stroke-dashoffset="0" font-family="none" font-weight="none" font-size="none" text-anchor="none" style="mix-blend-mode: normal"><path d="M138.7396,11.88653c0.01582,-0.33129 0.05054,-0.65938 0.16626,-0.9728c1.2126,-3.28397 4.21816,-5.39821 7.22739,-6.86864c0.82134,-0.40146 1.58892,-0.27508 2.4561,-0.44867c0.88477,-0.17717 1.63623,-0.64113 2.56494,-0.63943c0.7793,0.00142 1.61426,0.36664 2.354,0.59886c3.66504,1.15066 5.00244,2.55454 7.65381,5.15194c0.85254,0.83791 2.01709,2.53362 2.00684,3.78309c0,0.04362 -0.00439,0.08713 -0.00586,0.13074c-0.00146,0.03248 0,0.06497 0,0.09744l-0.01172,1.10887c0.37061,0.27182 0.61377,0.40822 0.70313,0.90078c0.05127,0.27773 0.02783,0.58799 0.0293,0.86953l0.00293,0.67734c0.02197,0.92959 0.27393,2.88721 -0.34277,3.61919c-0.10986,0.1311 -0.23584,0.2165 -0.37061,0.31772c0.02051,2.47603 -1.41797,4.98428 -3.13916,6.73521c-0.82178,0.83643 -1.79736,1.23823 -2.65723,1.99175c-0.00879,0.00703 -0.01904,0.01099 -0.02783,0.01655c-0.60645,0.5502 -1.0752,0.54111 -1.86475,0.64014c-0.23145,0.029 -0.14209,0.00249 -0.32959,0.09404c-0.31787,0.37529 -0.65918,0.5874 -0.5918,1.11636c0.1626,1.29727 1.28906,1.85303 1.11182,3.31172l0.15967,0.40356c0.42041,0.2811 0.479,0.45601 0.646,0.92109c0.64307,1.77788 2.04492,3.40518 2.31885,5.2938l0.05566,0.47637c0.13916,0.11118 0.28857,0.22192 0.38379,0.37778c0.41016,0.68071 3.87158,7.97051 3.92578,8.28281c0.04395,0.25327 0.01611,0.54961 -0.00293,0.80669l0.05859,0.1938c0.12744,0.08877 0.28125,0.14722 0.38086,0.26631c0.16992,0.20596 6.12598,12.13843 6.17871,12.41543l0.16406,0.57246c1.73877,1.66787 2.29102,4.10977 3.49658,6.13638c0.57129,0.95713 1.33447,1.74946 1.78857,2.77632c0.10107,0.22617 0.25781,0.36079 0.38379,0.55811c0.03076,0.04863 0.04541,0.10635 0.06738,0.15952l0.17871,0.71191c0.73242,0.74531 5.72461,7.94619 5.79785,8.63013l0.14795,0.26587c0.6709,0.64336 1.70068,1.49355 2.04639,2.36631l0.01904,0.5502c1.27734,1.09541 3.15674,2.62236 3.67676,4.22563c0.12158,0.37559 6.79395,6.22134 7.21143,6.36064c0.05859,0.01948 0.12158,0.023 0.18164,0.03457c0.3999,0.15732 0.61377,0.29883 0.93457,0.58403c1.3374,1.18813 3.2373,1.5583 4.43115,2.9064c0.84229,0.33179 1.62744,0.75249 2.45508,1.11387c0.23438,0.10298 0.31055,0.17578 0.4585,0.37998l0.56982,0.16479c1.125,-0.03208 1.65527,0.80435 2.729,0.8209c0.72803,-0.02783 1.8999,-0.19805 2.46826,0.35845c0.104,0.10225 0.13623,0.14854 0.22119,0.25679c1.62744,0.15718 8.48877,0.49966 9.66064,-0.30938c0.87891,-0.60688 2.02588,-0.19219 3.00879,-0.41689c1.30957,-0.29927 2.44482,-1.08105 3.81299,-1.34429c0.68555,-0.13213 1.00488,-0.20479 1.51465,-0.70737c1.06348,-0.07075 1.43115,-0.03809 2.16504,-0.8688l0.68262,0.01685c0.69727,-0.41528 1.2085,-0.73301 2.04932,-0.75029l0.41162,-0.18208c0.9624,-0.90981 2.68945,-1.12881 3.77197,-2.04287c0.78369,-0.02563 1.33447,-0.69595 2.12842,-0.84976c0.99902,-1.03828 2.05518,-1.45137 3.30176,-2.09897c0.27539,-0.10049 0.20801,-0.04746 0.40137,-0.20522c0.71045,-0.57847 1.2627,-1.14902 2.16064,-1.42661c0.50537,-0.41396 0.95654,-0.88975 1.47656,-1.28745c1.01514,-0.77725 2.03467,-1.3998 2.96338,-2.29644c0.66357,-0.69419 1.54541,-1.81626 2.47559,-2.10381c0.99902,-0.50024 1.85303,-1.51099 2.66602,-2.27549c1.77539,-1.88086 3.62402,-3.77798 5.53857,-5.51616c0.46143,-0.68335 1.3125,-1.39644 1.93799,-1.94956c0.35742,-0.39697 0.72217,-0.89927 1.2041,-1.14258c0.31934,-0.52163 0.35449,-1.07212 0.43213,-1.66392c-0.25928,-0.04087 -0.66797,-0.07266 -0.88916,-0.21372c-0.0498,-0.03179 -1.31836,-1.85303 -1.8457,-2.33892c-0.14355,-1.04546 -0.93018,-2.38008 -1.54102,-3.24595l0.09375,-0.20918l-0.16992,-1.02466l-0.07178,-1.54365l0.03809,-0.21943c-0.30615,-0.29839 -0.39697,-0.47388 -0.50977,-0.88564c0.05859,-0.41514 0.14063,-0.59312 0.3999,-0.92227c0.06152,-0.38906 0.07764,-0.78911 0.1084,-1.18184c0.06152,-0.31699 0.0498,-0.68335 0.07178,-1.00796l-0.08203,-0.352c0.10986,-0.43052 0.1582,-0.88271 0.22266,-1.32261c0.10986,-0.23232 0.29297,-0.46406 0.43359,-0.68159l0.06885,-0.05933c0.19189,-0.66636 0.52441,-1.29873 0.80859,-1.93081c0.4248,-0.94731 1.36963,-1.77378 2.06982,-2.53711c0.66357,-0.43491 1.30078,-1.18403 1.87939,-1.74126c1.64063,-1.62158 4.95703,-2.36455 7.20117,-2.36558c2.02734,-0.00103 5.12549,0.72861 6.69287,2.02734c0.91406,0.75718 1.43115,1.44565 2.58398,1.91338c0.02197,0.05332 0.04248,0.10708 0.06445,0.16011c0.42041,1.00518 1.17627,1.81831 1.74023,2.7501c1.22314,2.0231 1.51611,4.01191 2.02295,6.2874l-0.43066,1.05146c-0.41309,1.0103 -0.10693,3.15161 -0.89062,5.04258c-0.86572,2.09019 -2.59717,3.31084 -3.23291,4.91807c-0.22705,0.14429 -0.37646,0.23071 -0.63721,0.31245l-0.47754,0.13389c-0.45264,0.52881 -0.92432,1.13833 -1.64941,1.26357l-0.59473,0.20625c-0.32812,0.55928 -1.45166,0.9479 -2.06836,1.10361c-0.59766,0.15073 -1.17334,0.18018 -1.78418,0.2083c-0.2915,0.01333 -0.17432,-0.01348 -0.41455,0.08906c-0.58301,0.62959 -1.2085,0.58096 -2.01562,0.61333c-0.14795,0.00601 -0.29736,0.01113 -0.44531,0.01553c0.00879,1.71943 -0.2666,4.86006 -1.41504,6.24053c-0.13623,0.16436 -0.07764,0.08672 -0.20361,0.32607c0.14795,0.65449 0.21387,1.45913 -0.12891,2.07026c-0.09375,0.16875 -0.22705,0.31143 -0.35449,0.45513c-0.13184,0.32461 -0.15088,0.58945 -0.18164,0.93369c-0.05273,0.60791 -0.14502,0.93003 -0.55664,1.39585c-0.02051,0.05317 -0.04395,0.10503 -0.06006,0.15952c-0.08203,0.26821 -0.08789,0.49175 -0.1084,0.76772c-0.03809,0.50859 -0.07617,0.76362 -0.49658,1.09131c-0.05566,0.04336 -0.11572,0.08042 -0.17432,0.12056l-0.01465,1.16074c-0.03809,1.06333 -0.81885,1.7105 -0.76025,2.71626c-0.02637,0.6958 -0.64014,3.54302 -1.15137,4.05308c-0.0791,0.07954 -0.23291,0.18193 -0.32227,0.24595l0.01465,0.97002c-0.04541,0.78384 -0.04541,1.32275 -0.62402,1.91016c-0.11133,0.3791 -0.0835,0.75264 -0.1875,1.12134c-0.23437,0.83906 -0.70898,1.35073 -0.69287,2.25498c-0.03223,0.75103 -0.08203,1.20146 -0.56689,1.80952c-0.48633,0.94497 0.11279,2.01475 -0.69727,2.88765c-0.18311,0.19834 -0.11426,0.0854 -0.19482,0.37939c-0.06299,0.85356 -0.12891,1.35601 -0.67383,2.03496c-0.17578,1.80176 -0.16992,1.66011 -0.86572,3.23306c0.07764,0.79028 -0.00146,1.20513 -0.52002,1.82974c-0.0293,0.0353 -0.06006,0.06987 -0.08936,0.10488l-0.13037,1.10376c0.01611,0.60352 -0.10547,0.97646 -0.32959,1.53179c-0.34717,0.86016 -0.33105,1.79019 -0.98145,2.47881l-0.21533,0.94629c0.04688,0.56294 0.00879,0.8877 -0.19922,1.41108c-0.41162,1.03975 -0.59619,2.23491 -0.89941,3.3189c-0.62842,2.24092 -1.4458,4.50835 -1.87061,6.79556c-0.04102,0.22222 -0.07617,0.45176 -0.28125,0.59019c-0.06738,0.04468 -0.14502,0.06973 -0.2168,0.10474l-0.13037,0.0186l-0.01465,1.40288c-0.02637,0.44033 -0.09229,0.74253 -0.28125,1.14258c-0.39844,0.84814 -0.48926,1.81216 -0.73535,2.71216c-0.35156,1.28672 -0.83496,2.56318 -1.13379,3.86045c-0.11279,0.48501 -0.07471,1.12661 -0.28125,1.57485c-0.09668,0.20801 -0.24609,0.32666 -0.40723,0.48193c-0.01172,0.01758 -0.02197,0.03809 -0.03662,0.0542c-0.26514,0.28271 -0.37354,0.39551 -0.76758,0.44678c-0.38086,0.0498 -3.35449,-0.71631 -3.59766,-0.95508c-0.18604,-0.18164 -0.10693,-0.38379 -0.40283,-0.45117c-0.86719,-0.20068 -2.36719,0.30322 -3.07764,-0.23291c-0.18311,-0.1377 -0.33252,-0.26514 -0.54932,-0.35596c-0.67822,-0.28257 -3.84229,-0.80684 -4.82666,-1.05029c-0.55518,-0.13726 -1.10889,-0.44575 -1.64209,-0.55371c-0.32373,-0.06563 -0.68994,-0.04248 -1.01953,-0.02842c-1.05322,-0.02388 -2.12256,0.14824 -2.92969,-0.62563c-0.2124,-0.10781 -0.47461,-0.13198 -0.70605,-0.17827c-0.43066,0.06504 -0.91699,0.06328 -1.35205,0.04219c-0.76318,-0.03691 -1.17041,-0.14487 -1.68164,-0.7248l-0.77051,0.02388c-0.87158,-0.01494 -1.72266,-0.03105 -2.5752,-0.22793c-1.00488,-0.23188 -1.72705,-0.57158 -2.79199,-0.60439l-2.40527,-0.00029l-1.20264,-0.04556l-0.52441,-0.50977c-0.71191,-0.22222 -1.59521,-0.1043 -2.34668,-0.19453l-7.13086,-0.8269c-1.4165,-0.17051 -2.58984,-0.61816 -4.05322,-0.57231c-0.86279,-0.12935 -1.80176,-0.00879 -2.6792,-0.05039c-0.75293,-0.03545 -1.09717,-0.08481 -1.61572,-0.652c-0.62402,-0.03135 -1.24658,-0.05625 -1.87207,-0.07485l-1.37988,0.0022l-2.23828,-0.02827c-1.22314,-0.00498 -2.51953,0.20303 -3.50684,-0.63604c-1.12939,-0.127 -2.32764,-0.05654 -3.46582,-0.06226l-0.2124,-0.02827c-0.05127,-0.10063 -0.13623,-0.28228 -0.21094,-0.3624c-0.2915,-0.31128 -0.82764,-0.22031 -1.21729,-0.23262l-1.72998,-0.00439l0.12158,0.60981l-3.31494,0.01406c-0.49951,0.00308 -1.01514,0.02681 -1.51318,-0.02007c-0.47168,-0.04453 -0.68848,-0.27451 -0.97705,-0.61553c-0.81445,-0.277 -2.23389,-0.10723 -3.11865,-0.09976l-1.97754,-0.01479l-0.61816,-0.02593c-1.88232,0.04395 -3.76611,0.0457 -5.64844,0.00527c-3.65332,0.05728 -7.33887,0.11206 -10.99072,-0.00352c-1.32568,0.09214 -2.68945,0.02373 -4.01953,0.02007l-10.4959,0.00146l-2.75552,0.00146l-10.29155,-0.00498l-3.77622,0.01362c-0.69111,0.0063 -1.4458,-0.04893 -2.11729,0.12144l-0.06797,0.01978c-0.15146,0.3416 -0.16816,0.42114 -0.55078,0.54624c-0.50303,0.16465 -1.29404,0.06621 -1.81948,0.05654l-0.51167,-0.02637c-1.46074,0.0397 -2.92793,0.01655 -4.38955,0.02095l-2.74438,0.00029l-1.04956,-0.01055l-1.46191,0.03999l-0.62139,0.10195l-0.10693,-0.00967c-0.36255,0.40034 -0.68364,0.51489 -1.20732,0.5499c-0.63149,0.04233 -1.27778,0.0271 -1.91133,0.03032l-2.45786,0.01919c-0.85825,-0.01245 -1.59888,-0.05229 -2.40923,0.27598c-1.80103,0.72979 -4.10625,0.40005 -6.02271,0.5124c-1.02642,0.06021 -1.04019,0.54624 -2.17617,0.62534c-1.05908,0.07368 -4.50498,-0.14839 -5.24839,0.19131c-0.17988,0.08218 -0.32827,0.38804 -0.50801,0.47754c-0.81372,0.40547 -3.37866,0.06445 -4.44448,0.22412c-0.42905,0.06416 -0.43623,0.36431 -0.76465,0.49072c-0.85854,0.33032 -2.44717,0.11543 -3.40635,0.24668c-0.99243,0.13579 -1.94897,0.42656 -2.9395,0.55518c-0.60542,0.07866 -2.21382,0.05054 -2.65488,0.24434c-0.18926,0.08306 -0.34849,0.36694 -0.5376,0.45337c-0.75542,0.34512 -2.08594,0.05186 -2.91504,0.19438c-0.51533,0.08862 -0.52236,0.48911 -1.04136,0.5792c-1.12881,0.19585 -2.42681,-0.07222 -3.5061,0.17549c-0.41411,0.09492 -0.30601,0.31699 -0.58389,0.50244c-0.53394,0.35625 -2.5415,0.23101 -3.23101,0.24023c-0.3668,0.4396 -0.53745,0.50303 -1.07388,0.65288c-1.48696,0.41514 -2.65532,0.81211 -4.22622,0.7667l-0.57964,0.08496c-0.12554,0.14063 -0.2291,0.30469 -0.37661,0.42188c-0.16201,0.13037 -3.04863,0.95508 -3.3397,0.97559c-0.20947,0.01611 -0.42041,0.01611 -0.63032,0.01611l-0.5978,-0.5332c-0.66416,-0.83057 -0.4062,-1.94766 -0.65859,-2.92178c-0.25005,-0.96489 -0.81929,-1.83882 -1.08955,-2.80327c-0.48955,-1.74712 -0.76875,-3.54331 -1.08765,-5.3168c-0.28726,-0.31875 -0.42729,-0.50815 -0.53262,-0.92432c-0.4708,-1.86064 -1.67988,-4.0333 -1.55273,-5.92808c-0.02783,-0.15908 -0.08804,-0.44209 -0.16875,-0.59194c-0.16567,-0.30791 -0.30923,-0.46392 -0.37544,-0.81504c-0.27041,-1.43599 -1.01279,-2.88516 -0.93765,-4.33257c-0.04438,-0.31113 -0.08818,-0.52427 -0.24229,-0.79966c-0.74736,-0.90703 -2.00347,-6.05728 -2.05078,-7.34326c-0.79849,-0.80098 -0.45322,-1.78096 -1.06772,-2.56904c-0.17505,-0.22456 -0.196,-0.31055 -0.22764,-0.58828c-0.07573,-1.59463 -0.89487,-2.80225 -0.8606,-4.38398c-0.08496,-0.30454 -0.0394,-0.20493 -0.14971,-0.42568c-0.37061,-0.74092 -0.58008,-1.51348 -0.62417,-2.34067c-0.01685,-0.31523 -0.02593,-0.54609 -0.13975,-0.84639c-0.19614,-0.1604 -0.36196,-0.31655 -0.45659,-0.55942c-0.12466,-0.31978 -0.1314,-0.73916 -0.23877,-1.08413c-0.57129,-1.83677 -1.06216,-3.67163 -1.58818,-5.51836l-2.19961,-7.99028c-0.35317,-1.28687 -0.90146,-2.57183 -1.18403,-3.86733c-0.11675,-0.5354 -0.1248,-1.10947 -0.21943,-1.6563c-0.25708,-0.26895 -0.42847,-0.44663 -0.49131,-0.82207c-0.21899,-1.30928 -0.97983,-2.3603 -0.82544,-3.74648l-0.0813,-0.54565c-0.29736,-0.26777 -0.502,-0.63911 -0.85195,-0.8521c-0.54009,-0.32871 -1.0623,-0.38423 -1.5854,-0.80757c-0.88813,-0.36357 -1.76235,0.09434 -2.7123,-0.45059c-0.21035,-0.1207 -0.4062,-0.24067 -0.62637,-0.34409c-0.25386,-0.11895 -0.52368,-0.21694 -0.74106,-0.39829c-0.26294,-0.21929 -0.36636,-0.32051 -0.70811,-0.4125c-0.21504,-0.01011 -0.32197,-0.03018 -0.5124,-0.1396c-3.50171,-2.01226 -3.08862,-2.67847 -5.43999,-5.47515c-0.00015,-1.37197 -0.8792,-2.31108 -0.91245,-3.70225c-0.05405,-0.04541 -0.11104,-0.08774 -0.16245,-0.13623c-0.59136,-0.55913 -0.51226,-2.01738 -0.52324,-2.81338c-0.01523,-1.12134 -0.11587,-2.73208 0.69199,-3.56895c0.1002,-1.13394 0.51401,-1.9563 1.05586,-2.93452c1.84307,-3.32754 4.65439,-5.57842 8.3168,-6.6208c3.13271,-0.8915 6.31904,-0.49995 9.16362,1.1001c0.84272,0.09419 1.7499,1.26782 2.32031,1.87163c1.98003,1.76309 3.08086,3.33311 3.87305,5.87314c0.1522,0.48823 0.42305,1.04736 0.44077,1.5542c0.00732,0.20742 -0.00059,0.41528 -0.00864,0.62256l0.03091,4.68018c-0.04512,1.85142 -0.75688,3.59062 -1.85054,5.0814c-0.50405,0.68701 -1.08809,1.2791 -1.27456,2.13589c-0.30366,0.27231 -0.55518,0.25767 -0.93281,0.33164c-0.26133,0.05127 -0.16992,0.03149 -0.41616,0.23145c0.58301,0.68203 2.06338,1.83296 2.19741,2.6792c0.36738,0.93984 4.22402,4.80952 5.12622,5.17808c0.05947,0.02432 0.12187,0.04014 0.18281,0.06006c0.95713,0.27612 4.60356,4.1499 5.41216,5.11494c0.41074,0.32813 0.78149,0.68101 1.29873,0.8228c0.88257,0.25562 2.4126,1.9314 2.97188,2.68872c1.26987,0.39287 2.12827,1.2104 2.95723,2.21777l0.57173,0.23145c0.3665,0.09961 0.61772,0.22295 0.9416,0.4188c0.72349,0.43784 2.17207,1.63242 2.81807,1.8416c0.82617,0.22148 1.64795,0.77461 2.41816,1.16396c2.2519,1.13848 4.52432,2.4249 6.8562,3.37734c0.30132,0.12305 0.40518,0.25254 0.61377,0.49307c1.82915,0.13052 5.49844,1.59946 7.51553,2.16548c0.83247,0.2335 1.71621,0.05259 2.55396,0.21943c0.796,0.15835 1.10801,0.66782 2.01548,0.65142c0.08672,-0.00146 0.17344,0.00044 0.26001,0.00073c2.16211,0.00029 4.33315,-0.04204 6.49424,0.00879c0.5606,-0.02197 0.80654,-0.2833 1.21904,-0.63838l1.15503,-0.05757l1.2564,-0.0876c0.22192,-0.27202 0.43315,-0.40884 0.73447,-0.58579c0.76626,-0.0728 1.22769,-0.06006 1.78213,-0.63354c0.49922,-0.14546 1.01587,-0.15762 1.51479,-0.32241c0.6627,-0.21885 1.0897,-0.61479 1.80498,-0.75044c0.02725,-0.02842 0.05376,-0.05742 0.08174,-0.08511c0.04658,-0.046 0.09478,-0.09023 0.1418,-0.13579c1.46104,-1.41709 3.63208,-2.06279 5.28003,-3.28667c0.84521,-0.62769 1.60635,-1.37109 2.42241,-2.03584c0.9731,-0.79277 2.02485,-1.49663 2.94756,-2.34946c1.1376,-1.05146 2.16533,-2.21968 3.2896,-3.28564c0.68672,-0.63281 0.92212,-1.40435 1.4937,-2.10791c2.28779,-2.81675 4.45928,-5.48013 6.42583,-8.54722c0.36855,-0.57495 0.81328,-1.09541 1.13804,-1.69805l0.3353,-0.629c0.81006,-0.84302 3.35874,-4.95381 3.63208,-6.05757l0.1418,-0.0022c0.28228,-0.33062 0.31304,-0.5458 0.38892,-0.95962c0.20933,-0.5001 0.58389,-0.58989 0.69961,-1.15708c0.26821,-0.72114 0.825,-1.30781 1.30063,-1.90415l0.14253,-0.30747c0.35728,-0.78618 0.69697,-1.87939 1.31016,-2.48936l0.1938,-0.47681l0.05332,-0.09536c0.41382,-1.55098 1.99819,-3.0334 2.20327,-4.60781l0.10913,-0.00044c0.13916,-0.60161 0.69185,-1.58525 0.98247,-2.17573l0.24712,-0.00454l0.28931,-1.15225l0.10767,-0.15278l0.40986,-0.21108c0.04102,-0.37017 0.12012,-0.7415 0.18267,-1.10903l0.15469,-0.10635c0.3876,-0.39434 0.45703,-0.6646 0.55898,-1.20161l0.11338,-0.27217c0.6394,-0.48208 0.46802,-1.28789 1.08237,-1.83633l0.22998,-0.54624c-0.03193,-0.43916 0.08262,-0.85093 0.16626,-1.28086l0.23628,-0.21152l0.36372,-0.28608c0.02754,-0.58638 0.03779,-0.83247 0.40752,-1.2876c0.48647,-0.5502 2.05488,-4.03418 2.36602,-4.85186c0.14048,-0.36914 0.14634,-0.77183 0.14839,-1.16206c0.02007,-0.04629 0.03076,-0.09771 0.06006,-0.13872c0.51636,-0.72217 0.76362,-1.54717 1.34458,-2.22129c0.104,-0.55547 0.2064,-0.86807 0.55049,-1.32026c0.11851,-0.16274 0.0728,-0.08115 0.15776,-0.28579c0.25591,-0.6167 0.6356,-1.14873 0.8562,-1.77261c-0.01157,-0.29795 -0.04248,-0.5811 0.06753,-0.86558c0.35244,-0.91128 0.80156,-1.91646 1.49561,-2.61387c-0.01465,-0.03516 -0.0293,-0.07046 -0.04395,-0.10547c-0.02637,-0.05801 -0.0542,-0.11484 -0.07764,-0.17329c-0.2417,-0.57334 -0.58301,-0.90615 -1.01338,-1.34341l-0.56616,-0.02651c-0.58022,-0.15967 -0.82808,-0.67134 -1.45664,-0.8603c-0.64937,-0.11309 -1.2208,-0.78267 -1.69116,-1.21538c-1.66772,-1.53413 -4.06304,-4.66025 -4.15225,-6.97881c-0.03662,-0.63647 -0.02256,-1.28071 -0.02842,-1.91851l-0.00557,-4.35513c0.04043,-0.65229 0.05713,-1.29258 0.51475,-1.80331c0.20068,-0.22395 0.17417,-0.26019 0.23071,-0.55444z" fill="#c29c45"/><path d="M138.7396,11.88653c0.01582,-0.33129 0.05054,-0.65938 0.16626,-0.9728c1.2126,-3.28397 4.21816,-5.39821 7.22739,-6.86864c0.82134,-0.40146 1.58892,-0.27508 2.4561,-0.44867c0.88477,-0.17717 1.63623,-0.64113 2.56494,-0.63943c0.7793,0.00142 1.61426,0.36664 2.354,0.59886c3.66504,1.15066 5.00244,2.55454 7.65381,5.15194c0.85254,0.83791 2.01709,2.53362 2.00684,3.78309c0,0.04362 -0.00439,0.08713 -0.00586,0.13074c-0.00146,0.03248 0,0.06497 0,0.09744c-0.43945,0.03154 -0.4585,-0.0012 -0.76172,0.31096c-0.06299,0.41454 -0.07324,0.7983 -0.06592,1.2172c-0.43799,-1.12399 -0.82178,-2.36149 -1.36084,-3.43129c-0.93164,-2.32862 -3.74414,-4.29554 -5.9751,-5.25201c-2.93262,-1.25804 -5.92383,-1.20111 -8.86919,0.02531c-2.72505,1.13457 -4.52227,3.14061 -5.72915,5.79791c0.00439,0.09056 0.01289,0.18103 0.01333,0.27168c0.00894,1.47086 -2.80225,5.28268 -1.20557,7.89479c0.64731,1.05894 0.68423,2.146 1.07783,3.28154c0.28242,0.81416 2.22451,2.98857 2.90654,3.66079c0.20303,0.20024 0.13125,0.11514 0.24038,0.42437c1.15972,0.27773 2.08682,1.14873 3.07412,1.78022c0.06738,0.04307 0.12012,0.10415 0.18164,0.15615l0.25928,0.2335l-0.0293,0.20889c-0.36621,0.19219 -0.62358,0.24507 -1.0251,0.29985l-0.56616,-0.02651c-0.58022,-0.15967 -0.82808,-0.67134 -1.45664,-0.8603c-0.64937,-0.11309 -1.2208,-0.78267 -1.69116,-1.21538c-1.66772,-1.53413 -4.06304,-4.66025 -4.15225,-6.97881c-0.03662,-0.63647 -0.02256,-1.28071 -0.02842,-1.91851l-0.00557,-4.35513c0.04043,-0.65229 0.05713,-1.29258 0.51475,-1.80331c0.20068,-0.22395 0.17417,-0.26019 0.23071,-0.55444z" fill="#e2bb54"/><path d="M143.87153,28.71211c-0.17871,-0.7875 -1.85903,-2.16563 -2.42754,-2.92236c0.44722,0.42407 0.93193,0.99683 1.4896,1.26152l-1.42207,-1.81201c0.63472,0.4374 1.05308,1.16133 1.71709,1.5627c0.06753,0.04072 0.13667,0.07896 0.20508,0.11836c1.15972,0.27773 2.08682,1.14873 3.07412,1.78022c0.06738,0.04307 0.12012,0.10415 0.18164,0.15615l0.25928,0.2335l-0.0293,0.20889c-0.36621,0.19219 -0.62358,0.24507 -1.0251,0.29985l-0.56616,-0.02651c-0.58022,-0.15967 -0.82808,-0.67134 -1.45664,-0.8603z" fill="#d9b04e"/><path d="M146.68945,28.85669l0.25928,0.2335l-0.0293,0.20889c-0.36621,0.19219 -0.62358,0.24507 -1.0251,0.29985l-0.56616,-0.02651l0.15044,-0.44707c0.38218,-0.34512 0.70605,-0.25034 1.21084,-0.26865z" fill="#d9ae48"/><path d="M137.99414,14.24429c0.37397,0.03829 0.65464,0.04689 0.9668,0.28236c-0.43022,1.14103 -0.28184,2.58067 -0.27026,3.78639c0.0145,0.64805 0.07295,1.22754 -0.20112,1.83252c-0.15073,0.13022 -0.29312,0.26514 -0.46143,0.37236c-0.03662,-0.63647 -0.02256,-1.28071 -0.02842,-1.91851z" fill="#d9ae48"/><path d="M138.7396,11.88653c0.23306,-0.1274 0.44531,-0.22831 0.62432,-0.42979c0.19556,-0.22027 0.37837,-0.46233 0.56558,-0.69082l0.1582,0.04469l0.10181,0.58875c-0.09668,1.02775 -0.79995,2.06514 -1.14199,3.05805l-0.08657,0.06923c-0.31216,-0.23547 -0.59282,-0.24407 -0.9668,-0.28236c0.04043,-0.65229 0.05713,-1.29258 0.51475,-1.80331c0.20068,-0.22395 0.17417,-0.26019 0.23071,-0.55444z" fill="#d9b04e"/><path d="M163.22021,50.87417c0.12744,0.08877 0.28125,0.14722 0.38086,0.26631c0.16992,0.20596 6.12598,12.13843 6.17871,12.41543l0.16406,0.57246c1.73877,1.66787 2.29102,4.10977 3.49658,6.13638c0.57129,0.95713 1.33447,1.74946 1.78857,2.77632c0.10107,0.22617 0.25781,0.36079 0.38379,0.55811c0.03076,0.04863 0.04541,0.10635 0.06738,0.15952l0.17871,0.71191c0.73242,0.74531 5.72461,7.94619 5.79785,8.63013l0.14795,0.26587c0.6709,0.64336 1.70068,1.49355 2.04639,2.36631l0.01904,0.5502c1.27734,1.09541 3.15674,2.62236 3.67676,4.22563c0.12158,0.37559 6.79395,6.22134 7.21143,6.36064c0.05859,0.01948 0.12158,0.023 0.18164,0.03457c0.12891,0.60352 0.64307,0.84053 0.65332,1.35981l-0.24756,0.35757c-3.05859,-1.34136 -8.97949,-7.66787 -11.1167,-10.42925c-0.76611,-0.79438 -1.77246,-1.63623 -2.11963,-2.70513c-0.2915,-0.39814 -0.55957,-0.80903 -0.94629,-1.12412l-0.38525,-0.7021c-0.06885,-0.18135 -0.02197,-0.10459 -0.16113,-0.26089c-1.78857,-2.01636 -3.97266,-5.53594 -5.37305,-7.90269l-0.4292,-1.0478c-0.95654,-0.76304 -1.06348,-1.94399 -1.86182,-2.85132c-0.21826,-0.24814 -0.41895,-0.5061 -0.62402,-0.76509c-0.06006,0.00073 -0.26514,0.00601 -0.31787,-0.00337c-0.44531,-0.08013 -0.00586,-0.70884 -0.07471,-1.01836c-0.18896,-0.84126 -1.29199,-1.44023 -1.55713,-2.22378c-0.05127,-0.1541 0.11279,-0.48384 0.07031,-0.64819c-0.10254,-0.3958 -0.81445,-1.26826 -1.06055,-1.69614l-0.47314,-1.04678c-0.20068,-0.24331 -0.32373,-0.40093 -0.44238,-0.69844c-0.70166,-1.74053 -1.7168,-3.40166 -2.57959,-5.07363c-1.11475,-2.16064 -2.13721,-4.36992 -3.2373,-6.53306c0.25195,-0.30498 0.39844,-0.66196 0.56396,-1.01704z" fill="#d9ae48"/><path d="M264.05713,52.65015c1.64063,-1.62158 4.95703,-2.36455 7.20117,-2.36558c2.02734,-0.00103 5.12549,0.72861 6.69287,2.02734c0.91406,0.75718 1.43115,1.44565 2.58398,1.91338c0.02197,0.05332 0.04248,0.10708 0.06445,0.16011c0.42041,1.00518 1.17627,1.81831 1.74023,2.7501c1.22314,2.0231 1.51611,4.01191 2.02295,6.2874l-0.43066,1.05146c-0.41309,1.0103 -0.10693,3.15161 -0.89062,5.04258c-0.86572,2.09019 -2.59717,3.31084 -3.23291,4.91807c-0.22705,0.14429 -0.37646,0.23071 -0.63721,0.31245l-0.47754,0.13389c-0.45264,0.52881 -0.92432,1.13833 -1.64941,1.26357l-0.59473,0.20625c-0.32812,0.55928 -1.45166,0.9479 -2.06836,1.10361c-0.59766,0.15073 -1.17334,0.18018 -1.78418,0.2083c-0.2915,0.01333 -0.17432,-0.01348 -0.41455,0.08906c-0.5332,-0.21255 -1.21582,-0.22881 -1.78564,-0.30278l-0.16699,-0.2187c0.17578,-0.27861 0.3999,-0.4998 0.62695,-0.73521c0.22998,-0.16157 0.375,-0.2127 0.65332,-0.25562c0.2417,0.14678 0.45557,0.25093 0.72363,0.34072c0.9624,-0.37192 2.12256,-0.64409 3.02344,-1.11357c0.29297,-0.15322 0.57861,-0.25444 0.89355,-0.35361l0.13916,-0.04263c0.15381,-0.13154 0.30762,-0.25049 0.479,-0.35845c1.35938,-0.84683 2.54443,-1.94282 3.49658,-3.22998c2.13867,-2.88457 2.72754,-6.50186 2.21631,-9.97954c-0.42627,-2.9042 -1.66113,-4.84746 -3.78809,-6.81841c-0.54053,-0.50156 -1.0957,-1.05967 -1.73877,-1.42954c-0.82031,-0.47212 -1.82666,-0.42759 -2.57666,-1.01382c-0.06592,-0.05171 -0.22852,-0.20083 -0.32959,-0.24902c-0.38379,-0.18486 -1.125,-0.15732 -1.56006,-0.18398c-3.17578,-0.19512 -4.41211,0.41924 -7.29053,1.47319c0.0835,-0.16919 0.09521,-0.29194 0.12012,-0.47651c-0.38965,-0.27891 -0.78955,-0.16553 -1.26123,-0.15454z" fill="#e2bb54"/><path d="M276.3252,75.26411c0.22998,0.06299 0.43945,0.04058 0.55811,0.26353c0.11133,0.21035 0.13184,0.38555 0.16113,0.61729l-0.59473,0.20625c-0.30908,-0.13813 -0.52002,-0.23188 -0.74561,-0.48896c0.12012,-0.39199 0.28711,-0.39668 0.62109,-0.5981z" fill="#d9b04e"/><path d="M278.69385,74.88135c-0.20801,-0.13813 -0.39111,-0.23525 -0.52295,-0.45615c-0.104,-0.17505 -0.01172,-0.25605 0.05127,-0.43242l0.35156,-0.0501c0.3999,0.2647 0.41309,0.37734 0.59766,0.80479z" fill="#d9b04e"/><path d="M17.32852,60.32109c0.1002,-1.13394 0.51401,-1.9563 1.05586,-2.93452c1.84307,-3.32754 4.65439,-5.57842 8.3168,-6.6208c3.13271,-0.8915 6.31904,-0.49995 9.16362,1.1001c-0.00586,0.06064 -0.01626,0.12114 -0.01743,0.18208c-0.00498,0.28857 0.08789,0.42026 0.22925,0.65947c-1.38472,-0.42979 -2.71172,-1.52329 -4.18008,-1.50469c-0.88374,0.01128 -4.8,-0.1021 -5.30815,0.00571c-0.30557,0.06475 -0.65581,0.64321 -1.0147,0.70605c-0.39229,0.06855 -0.97148,-0.21357 -1.2709,0.07808l0.07017,0.51504c-0.32153,0.15645 -0.70708,0.26147 -0.9063,0.56104l0.15542,0.13857c0.29033,-0.09976 0.43667,-0.17168 0.67368,-0.37266c1.67549,-1.42104 5.49126,-1.4751 7.55493,-1.2561c0.39141,0.0416 0.72686,0.18677 1.08662,0.3356c0.59707,0.24712 1.33433,0.42173 1.81187,0.87056c-0.87217,0.22354 -1.80396,-0.45059 -2.53696,-0.85371c-3.76567,-0.046 -6.86528,-0.12437 -9.74561,2.66602c-1.53384,1.48623 -4.34722,5.63906 -4.32744,7.71035c0.01143,1.19194 -0.00835,2.81689 0.26616,3.96724c0.3583,0.29326 0.71177,0.59253 1.06025,0.89751c-0.19526,0.19453 -0.46201,0.08218 -0.46875,0.34277c-0.05859,2.24048 2.30068,4.83047 3.8124,6.24536c0.69785,0.65317 1.60137,1.41313 2.54165,1.65923c-0.44707,0.04351 -0.84111,-0.03062 -1.15723,0.30454l-0.00659,0.43271c-0.21504,-0.01011 -0.32197,-0.03018 -0.5124,-0.1396c-3.50171,-2.01226 -3.08862,-2.67847 -5.43999,-5.47515c-0.00015,-1.37197 -0.8792,-2.31108 -0.91245,-3.70225c-0.05405,-0.04541 -0.11104,-0.08774 -0.16245,-0.13623c-0.59136,-0.55913 -0.51226,-2.01738 -0.52324,-2.81338c-0.01523,-1.12134 -0.11587,-2.73208 0.69199,-3.56895z" fill="#e2bb54"/><path d="M17.32852,60.32109c-0.00381,2.1646 0.05391,4.35762 -0.0063,6.51855c-0.05405,-0.04541 -0.11104,-0.08774 -0.16245,-0.13623c-0.59136,-0.55913 -0.51226,-2.01738 -0.52324,-2.81338c-0.01523,-1.12134 -0.11587,-2.73208 0.69199,-3.56895z" fill="#937c3b"/><path d="M81.60146,141.46523c0.97061,0.01582 1.4877,-0.68672 2.44102,-0.83188c1.31836,-0.20083 2.67056,-0.07764 3.99507,-0.20918c0.9769,-0.09712 1.93477,-0.35698 2.90947,-0.4771c1.02788,-0.12671 2.07246,-0.08818 3.10166,-0.20039c1.76426,-0.19233 7.69468,-1.37578 9.08774,-0.88696c0.41543,0.14575 0.42422,0.53833 0.53965,0.90923c-0.85825,-0.01245 -1.59888,-0.05229 -2.40923,0.27598c-1.80103,0.72979 -4.10625,0.40005 -6.02271,0.5124c-1.02642,0.06021 -1.04019,0.54624 -2.17617,0.62534c-1.05908,0.07368 -4.50498,-0.14839 -5.24839,0.19131c-0.17988,0.08218 -0.32827,0.38804 -0.50801,0.47754c-0.81372,0.40547 -3.37866,0.06445 -4.44448,0.22412c-0.42905,0.06416 -0.43623,0.36431 -0.76465,0.49072c-0.85854,0.33032 -2.44717,0.11543 -3.40635,0.24668c-0.99243,0.13579 -1.94897,0.42656 -2.9395,0.55518c-0.60542,0.07866 -2.21382,0.05054 -2.65488,0.24434c-0.18926,0.08306 -0.34849,0.36694 -0.5376,0.45337c-0.75542,0.34512 -2.08594,0.05186 -2.91504,0.19438c-0.51533,0.08862 -0.52236,0.48911 -1.04136,0.5792c-1.12881,0.19585 -2.42681,-0.07222 -3.5061,0.17549c-0.41411,0.09492 -0.30601,0.31699 -0.58389,0.50244c-0.53394,0.35625 -2.5415,0.23101 -3.23101,0.24023c-0.36797,-0.00762 -0.87158,0.03369 -1.20937,-0.11777c-0.25649,-0.11499 -0.26763,-0.16758 -0.33955,-0.43638c0.61729,-0.56689 5.51836,-1.03228 6.75,-1.50366c1.1376,-0.43535 2.27256,-0.0312 3.41689,-0.24434c2.89878,-0.53965 5.60991,-1.33711 8.56743,-1.6626c0.12759,-0.10269 0.18984,-0.1626 0.32329,-0.24053c0.629,-0.36665 2.1312,-0.29092 2.80605,-0.08716z" fill="#d9ae48"/><path d="M132.07822,136.84497c7.29756,-0.13213 14.67129,-0.01538 21.97354,0.08408c0.22119,0.35508 0.25049,0.53657 0.70166,0.58945c0.44531,0.05229 0.97705,-0.20815 1.35938,0.12627l-1.57324,0.04336l-0.03809,0.33794c0.29883,0.04673 0.5874,0.08569 0.88916,0.11323c0.2373,0.02153 0.41748,0.06343 0.6416,0.13799c-1.32568,0.09214 -2.68945,0.02373 -4.01953,0.02007l-10.4959,0.00146l-2.75552,0.00146l-10.29155,-0.00498l-3.77622,0.01362c-0.00762,-0.42012 0.01948,-0.83291 0.0479,-1.25156l0.56763,-0.10723c2.08022,-0.40649 4.64341,-0.13081 6.76919,-0.10518z" fill="#d9b04e"/><path d="M141.9126,137.69341c3.38511,-0.18633 6.85107,-0.02065 10.24365,0.00176l-0.14355,0.6022l-10.4959,0.00146z" fill="#6f5b2d"/><path d="M128.53462,137.5897c0.46113,0.14268 0.56514,0.15923 0.89985,0.5313c0.15293,-0.11309 0.40049,-0.35684 0.56777,-0.41982c0.77124,-0.29048 7.4373,-0.05933 8.75273,-0.0312l0.0063,0.63032l-10.29155,-0.00498z" fill="#937c3b"/><path d="M138.75498,137.66997c1.05073,-0.00718 2.10835,-0.03794 3.15762,0.02344l-0.3958,0.60542l-2.75552,0.00146z" fill="#6f5b2d"/><path d="M152.15625,137.69517c0.78809,-0.00586 1.59668,-0.04673 2.3833,-0.00703l-0.03809,0.33794c0.29883,0.04673 0.5874,0.08569 0.88916,0.11323c0.2373,0.02153 0.41748,0.06343 0.6416,0.13799c-1.32568,0.09214 -2.68945,0.02373 -4.01953,0.02007z" fill="#4f401e"/><path d="M154.05176,136.92905c1.91309,-0.32578 4.21729,-0.06753 6.16699,-0.07119c1.57617,-0.00308 3.15088,-0.12905 4.72266,-0.12656c1.14404,0.00176 2.28955,0.12539 3.43652,0.14795c2.41113,0.04761 4.8252,0.00352 7.23633,0.04263c0.69141,0.01128 1.1543,0.74355 1.81494,0.60308c0.35889,-0.07632 0.62988,-0.43228 0.85547,-0.69492c0.32227,0.18867 0.18457,0.37881 0.39551,0.58433c0.29004,0.28286 6.38379,0.13799 7.49707,0.36182c-0.09229,0.28403 -0.17578,0.4355 -0.37793,0.65596l-1.72998,-0.00439l0.12158,0.60981l-3.31494,0.01406c-0.49951,0.00308 -1.01514,0.02681 -1.51318,-0.02007c-0.47168,-0.04453 -0.68848,-0.27451 -0.97705,-0.61553c-0.81445,-0.277 -2.23389,-0.10723 -3.11865,-0.09976l-1.97754,-0.01479l-0.61816,-0.02593c-1.88232,0.04395 -3.76611,0.0457 -5.64844,0.00527c-3.65332,0.05728 -7.33887,0.11206 -10.99072,-0.00352c-0.22412,-0.07456 -0.4043,-0.11646 -0.6416,-0.13799c-0.30176,-0.02754 -0.59033,-0.0665 -0.88916,-0.11323l0.03809,-0.33794l1.57324,-0.04336c-0.38232,-0.33442 -0.91406,-0.07397 -1.35937,-0.12627c-0.45117,-0.05288 -0.48047,-0.23437 -0.70166,-0.58945z" fill="#d9ae48"/><path d="M156.11279,137.64478l7.59814,0.03765c0.96973,0.04702 1.98633,-0.05771 2.92969,0.15044c0.13184,0.14692 0.2666,0.28755 0.38232,0.44795c-3.65332,0.05728 -7.33887,0.11206 -10.99072,-0.00352c-0.22412,-0.07456 -0.4043,-0.11646 -0.6416,-0.13799c-0.30176,-0.02754 -0.59033,-0.0665 -0.88916,-0.11323l0.03809,-0.33794z" fill="#6f5b2d"/><path d="M163.71094,137.68242c1.08105,-0.18999 8.02881,-0.21357 8.7627,0.22148l0.19775,0.37163c-1.88232,0.04395 -3.76611,0.0457 -5.64844,0.00527c-0.11572,-0.1604 -0.25049,-0.30103 -0.38232,-0.44795c-0.94336,-0.20815 -1.95996,-0.10342 -2.92969,-0.15044z" fill="#937c3b"/><path d="M180.81299,138.40283l3.25635,0.0249l0.12158,0.60981l-3.31494,0.01406z" fill="#4f401e"/><path d="M178.38574,138.41602l2.42725,-0.01318l0.06299,0.64878c-0.49951,0.00308 -1.01514,0.02681 -1.51318,-0.02007c-0.47168,-0.04453 -0.68848,-0.27451 -0.97705,-0.61553z" fill="#362d1f"/><path d="M173.28955,138.30146c0.30615,-0.45762 0.36621,-0.54624 0.88477,-0.80054c0.33691,0.01099 0.56982,0.04014 0.81299,0.30161c0.11279,0.12144 0.2124,0.37266 0.27979,0.51372z" fill="#c29c45"/><path d="M32.8103,84.53599c0.03062,-0.07925 0.06313,-0.15776 0.0917,-0.23774c0.15688,-0.43945 0.12173,-0.92681 0.11909,-1.38691c0.30205,0.50303 -0.02241,1.43013 0.22969,2.04902c0.27949,-0.20259 0.22646,-0.08218 0.27378,-0.38291c0.06899,-0.43828 -0.2272,-1.3415 -0.02212,-1.6645c0.35156,0.54609 0.19204,1.47847 0.11338,2.09546c0.17065,0.13286 0.48149,0.31318 0.60747,0.47783c0.24111,0.31509 0.39126,1.36523 0.50068,1.7855c0.525,2.0165 1.01147,4.04927 1.57632,6.05464c0.29824,1.05894 0.848,2.21074 0.98906,3.29312c0.03076,0.23481 0.03984,0.46553 0.05479,0.70107c0.00557,0.08936 0.01421,0.17842 0.02139,0.26763c1.53105,1.74756 1.01089,4.57808 2.14102,6.55459c0.16948,1.25845 0.70532,2.47661 0.78047,3.71851c0.18604,0.29458 0.38862,0.6022 0.52178,0.9249c0.25591,0.61992 1.03198,3.88857 0.94072,4.49883c-0.02769,0.1853 -0.04482,0.375 -0.06826,0.56089l-0.19482,0.03252l-0.13799,-0.14385c-0.33413,-0.34424 -0.40708,-0.43638 -0.87729,-0.52603c-0.07573,-1.59463 -0.89487,-2.80225 -0.8606,-4.38398c-0.08496,-0.30454 -0.0394,-0.20493 -0.14971,-0.42568c-0.37061,-0.74092 -0.58008,-1.51348 -0.62417,-2.34067c-0.01685,-0.31523 -0.02593,-0.54609 -0.13975,-0.84639c-0.19614,-0.1604 -0.36196,-0.31655 -0.45659,-0.55942c-0.12466,-0.31978 -0.1314,-0.73916 -0.23877,-1.08413c-0.57129,-1.83677 -1.06216,-3.67163 -1.58818,-5.51836l-2.19961,-7.99028c-0.35317,-1.28687 -0.90146,-2.57183 -1.18403,-3.86733c-0.11675,-0.5354 -0.1248,-1.10947 -0.21943,-1.6563z" fill="#d9ae48"/><path d="M232.51318,98.9269c0.42188,0.18633 0.8584,0.32109 1.18359,0.65522l-1.28467,0.42729c-0.44824,0.35054 -0.94189,0.79028 -1.46191,1.02319c-0.95508,0.42729 -3.50391,0.71221 -4.07666,1.34238c-1.09131,1.19868 -4.08252,0.54478 -5.15625,1.55508c-0.05859,0.05596 -0.12158,0.10898 -0.18018,0.16436c-0.04687,0.04321 -0.09229,0.08789 -0.1377,0.13169c-1.76807,0.23599 -3.58154,0.63794 -5.34814,0.77769c-1.77246,0.14004 -7.92334,0.03442 -9.27246,-1.04458c-0.03955,-0.03223 -0.07324,-0.07266 -0.10986,-0.10898l0.12158,-0.16069c0.76172,-0.09214 1.71094,0.03223 2.41699,-0.20039c1.62744,0.15718 8.48877,0.49966 9.66064,-0.30938c0.87891,-0.60688 2.02588,-0.19219 3.00879,-0.41689c1.30957,-0.29927 2.44482,-1.08105 3.81299,-1.34429c0.68555,-0.13213 1.00488,-0.20479 1.51465,-0.70737c1.06348,-0.07075 1.43115,-0.03809 2.16504,-0.8688l0.68262,0.01685c0.69727,-0.41528 1.2085,-0.73301 2.04932,-0.75029z" fill="#d9ae48"/><path d="M130.43818,66.26455c0.19233,0.54551 0.33633,0.75381 0.77505,1.13437c-0.32314,0.42905 -0.48721,0.91978 -0.78252,1.35425c-1.7792,2.53535 -3.14019,5.35283 -4.79077,7.97842c-0.64805,1.03081 -1.50806,1.89258 -2.20518,2.88311c-0.50112,0.71221 -0.70693,1.57573 -1.23354,2.28853c-1.21245,1.64106 -6.21416,7.28364 -6.70605,8.48804c-0.30498,-0.35918 -0.47769,-0.61011 -0.61289,-1.06392c0.68672,-0.63281 0.92212,-1.40435 1.4937,-2.10791c2.28779,-2.81675 4.45928,-5.48013 6.42583,-8.54722c0.36855,-0.57495 0.81328,-1.09541 1.13804,-1.69805l0.3353,-0.629c0.81006,-0.84302 3.35874,-4.95381 3.63208,-6.05757l0.1418,-0.0022c0.28228,-0.33062 0.31304,-0.5458 0.38892,-0.95962c0.20933,-0.5001 0.58389,-0.58989 0.69961,-1.15708c0.26821,-0.72114 0.825,-1.30781 1.30063,-1.90415z" fill="#d9ae48"/><path d="M130.43818,66.26455c0.19233,0.54551 0.33633,0.75381 0.77505,1.13437c-0.32314,0.42905 -0.48721,0.91978 -0.78252,1.35425c-0.00396,-0.41016 -0.03926,-0.77241 -0.10884,-1.17656c-0.19087,-0.01904 -0.61274,0.4585 -1.18433,0.59209c0.26821,-0.72114 0.825,-1.30781 1.30063,-1.90415z" fill="#d9b04e"/><path d="M262.17773,54.39141c0.66357,-0.43491 1.30078,-1.18403 1.87939,-1.74126c0.47168,-0.01099 0.87158,-0.12437 1.26123,0.15454c-0.0249,0.18457 -0.03662,0.30732 -0.12012,0.47651c-1.30664,1.10845 -2.68945,2.4126 -3.57715,3.8877c-0.479,0.79512 -0.8584,1.65249 -1.35791,2.43018c-0.26221,0.40708 -0.25488,0.84521 -0.32373,1.30825c-0.00439,0.02739 -0.01318,0.05376 -0.02051,0.08057c-0.84668,0.98584 -0.54053,3.64995 -0.43506,4.91382c0.03076,0.3728 0.11133,0.68306 0.35449,0.97764c0.26807,0.25562 0.29736,0.38979 0.34277,0.73594c0.12451,0.96606 0.8833,2.90728 1.43848,3.70503c0.46436,0.66899 2.36719,1.8334 1.97754,2.63452l-0.50684,0.16919l-0.11865,-0.05596c-0.25928,-0.04087 -0.66797,-0.07266 -0.88916,-0.21372c-0.0498,-0.03179 -1.31836,-1.85303 -1.8457,-2.33892c-0.14355,-1.04546 -0.93018,-2.38008 -1.54102,-3.24595l0.09375,-0.20918l-0.16992,-1.02466l-0.07178,-1.54365l0.03809,-0.21943c-0.30615,-0.29839 -0.39697,-0.47388 -0.50977,-0.88564c0.05859,-0.41514 0.14063,-0.59312 0.3999,-0.92227c0.06152,-0.38906 0.07764,-0.78911 0.1084,-1.18184c0.06152,-0.31699 0.0498,-0.68335 0.07178,-1.00796l-0.08203,-0.352c0.10986,-0.43052 0.1582,-0.88271 0.22266,-1.32261c0.10986,-0.23232 0.29297,-0.46406 0.43359,-0.68159l0.06885,-0.05933c0.19189,-0.66636 0.52441,-1.29873 0.80859,-1.93081c0.4248,-0.94731 1.36963,-1.77378 2.06982,-2.53711z" fill="#d9b04e"/><path d="M259.80615,67.05454c0.17285,0.66548 0.24463,1.22871 0.04102,1.89551l-0.16113,0.00513c-0.15527,-0.31025 -0.25781,-0.56104 -0.32227,-0.90308c0.09668,-0.48838 0.10254,-0.61069 0.44238,-0.99756z" fill="#d9ae48"/><path d="M162.33545,14.24722c-0.00732,-0.4189 0.00293,-0.80266 0.06592,-1.2172c0.30322,-0.31216 0.32227,-0.27942 0.76172,-0.31096l-0.01172,1.10887c0.37061,0.27182 0.61377,0.40822 0.70313,0.90078c0.05127,0.27773 0.02783,0.58799 0.0293,0.86953l0.00293,0.67734c0.02197,0.92959 0.27393,2.88721 -0.34277,3.61919c-0.10986,0.1311 -0.23584,0.2165 -0.37061,0.31772c0.02051,2.47603 -1.41797,4.98428 -3.13916,6.73521c-0.82178,0.83643 -1.79736,1.23823 -2.65723,1.99175c-0.00879,0.00703 -0.01904,0.01099 -0.02783,0.01655c-0.60645,0.5502 -1.0752,0.54111 -1.86475,0.64014c-0.23145,0.029 -0.14209,0.00249 -0.32959,0.09404c-0.07764,-0.02417 -0.15674,-0.04248 -0.23291,-0.0728c-0.33252,-0.13389 -0.44238,-0.16392 -0.60498,-0.48325c0.38086,-0.34102 0.854,-0.3479 1.33887,-0.41821l0.26807,-0.89092c0.0498,-0.00308 0.09961,-0.00059 0.14795,-0.00923c1.09863,-0.19395 2.65137,-1.58115 3.32813,-2.41201c2.58838,-3.1752 3.37354,-7.16543 2.93555,-11.15654z" fill="#d9b04e"/><path d="M163.18359,16.15137l0.70313,0.12422c0.02197,0.92959 0.27393,2.88721 -0.34277,3.61919c-0.10986,0.1311 -0.23584,0.2165 -0.37061,0.31772c-0.00293,-1.35381 0,-2.70747 0.01025,-4.06113z" fill="#c29c45"/><path d="M163.15137,13.82793c0.37061,0.27182 0.61377,0.40822 0.70313,0.90078c0.05127,0.27773 0.02783,0.58799 0.0293,0.86953l0.00293,0.67734l-0.70312,-0.12422z" fill="#937c3b"/><path d="M89.15112,104.27271c0.42949,0.0104 0.88315,-0.00117 1.30928,0.05098c0.33838,0.04131 0.50215,0.05962 0.71675,0.34028l-0.15542,0.25811c-0.76436,0.29868 -1.94634,0.1333 -2.77236,0.13345c-4.42866,0.00088 -8.5626,-1.15884 -12.76084,-2.48101c-1.27192,-0.40063 -2.81543,-1.18374 -4.12939,-1.25991c-0.0457,-0.00264 -0.09155,-0.00264 -0.13726,-0.00396l0.01289,-0.0665c0.40107,-0.2124 0.90044,-0.08979 1.35205,-0.05669l0.04966,-0.16611c-0.36094,-0.26074 -0.92241,-0.30015 -1.3541,-0.38027c0.32256,-0.15439 0.77314,-0.09844 1.13071,-0.10532c1.82915,0.13052 5.49844,1.59946 7.51553,2.16548c0.83247,0.2335 1.71621,0.05259 2.55396,0.21943c0.796,0.15835 1.10801,0.66782 2.01548,0.65142c0.08672,-0.00146 0.17344,0.00044 0.26001,0.00073c2.16211,0.00029 4.33315,-0.04204 6.49424,0.00879c-0.70957,0.73477 -1.15869,0.53672 -2.10117,0.69111z" fill="#d9ae48"/><path d="M84.75806,103.5728c2.16211,0.00029 4.33315,-0.04204 6.49424,0.00879c-0.70957,0.73477 -1.15869,0.53672 -2.10117,0.69111c-1.13936,0.08877 -2.9064,0.17534 -3.98628,-0.20977c-0.30732,-0.10957 -0.27334,-0.21226 -0.40679,-0.49014z" fill="#937c3b"/><path d="M114.88228,89.32734c0.13521,0.45381 0.30791,0.70474 0.61289,1.06392c-2.47104,2.42769 -5.06968,5.30786 -7.99702,7.18169c-0.22178,0.18794 -0.44546,0.36343 -0.63647,0.58345c-0.22412,0.20259 -0.42187,0.29487 -0.69038,0.42422c-1.37974,0.66519 -2.72153,1.89785 -4.23281,2.18789l-0.12334,0.25693c-0.34482,-0.2833 -0.68042,-0.38599 -1.096,-0.51958c0.02725,-0.02842 0.05376,-0.05742 0.08174,-0.08511c0.04658,-0.046 0.09478,-0.09023 0.1418,-0.13579c1.46104,-1.41709 3.63208,-2.06279 5.28003,-3.28667c0.84521,-0.62769 1.60635,-1.37109 2.42241,-2.03584c0.9731,-0.79277 2.02485,-1.49663 2.94756,-2.34946c1.1376,-1.05146 2.16533,-2.21968 3.2896,-3.28564z" fill="#d9b04e"/><path d="M189.6416,138.25913l1.32422,0.00938l1.72559,0.04072c0.80566,0.13813 2.71289,0.56616 3.41162,0.173c1.01221,-0.11045 1.40918,-0.07896 2.23682,0.51958c1.79883,0.01392 3.98145,-0.19819 5.72461,0.16245c0.39844,0.20786 0.55225,0.38716 1.00049,0.27949c0.32813,-0.30454 0.34863,-0.39404 0.78809,-0.4188c0.52002,0.26909 1.04736,0.58682 1.6084,0.75732c-0.82178,-0.07178 -2.28662,-0.38525 -2.93701,0.26836c-0.12744,0.12773 -0.24023,0.35625 -0.32666,0.5064c-0.86279,-0.12935 -1.80176,-0.00879 -2.6792,-0.05039c-0.75293,-0.03545 -1.09717,-0.08481 -1.61572,-0.652c-0.62402,-0.03135 -1.24658,-0.05625 -1.87207,-0.07485l-1.37988,0.0022l-2.23828,-0.02827c-1.22314,-0.00498 -2.51953,0.20303 -3.50684,-0.63604c-1.12939,-0.127 -2.32764,-0.05654 -3.46582,-0.06226c0.08496,-0.12129 0.16553,-0.24507 0.26074,-0.35903c0.43359,-0.52646 1.31689,-0.3939 1.94092,-0.43726z" fill="#d9ae48"/><path d="M204.06445,139.16426c0.39844,0.20786 0.55225,0.38716 1.00049,0.27949c0.32813,-0.30454 0.34863,-0.39404 0.78809,-0.4188c0.52002,0.26909 1.04736,0.58682 1.6084,0.75732c-0.82178,-0.07178 -2.28662,-0.38525 -2.93701,0.26836c-0.12744,0.12773 -0.24023,0.35625 -0.32666,0.5064c-0.86279,-0.12935 -1.80176,-0.00879 -2.6792,-0.05039c-0.75293,-0.03545 -1.09717,-0.08481 -1.61572,-0.652c1.00928,-0.07339 3.11426,0.30718 3.94482,-0.2061c0.19922,-0.12363 0.17139,-0.27437 0.2168,-0.48428z" fill="#d9b04e"/><path d="M234.66797,145.00137c-0.00293,-0.3457 -0.08496,-0.55459 0.15381,-0.82178c2.23535,-0.18047 4.30371,0.48999 6.48486,0.80376c0.4585,0.06606 0.85986,0.3791 1.19238,0.68804c1.62891,0.08467 4.70215,0.62988 6.01025,1.57031c0.46582,0.00879 0.84961,0.01611 1.30225,-0.12744l0.23584,-0.25342c0.26074,0.26221 0.27686,0.51855 0.36182,0.85986c0.06152,0.24609 0.03223,0.15088 0.17871,0.40723c-0.01172,0.01758 -0.02197,0.03809 -0.03662,0.0542c-0.26514,0.28271 -0.37354,0.39551 -0.76758,0.44678c-0.38086,0.0498 -3.35449,-0.71631 -3.59766,-0.95508c-0.18604,-0.18164 -0.10693,-0.38379 -0.40283,-0.45117c-0.86719,-0.20068 -2.36719,0.30322 -3.07764,-0.23291c-0.18311,-0.1377 -0.33252,-0.26514 -0.54932,-0.35596c-0.67822,-0.28257 -3.84229,-0.80684 -4.82666,-1.05029c-0.55518,-0.13726 -1.10889,-0.44575 -1.64209,-0.55371c-0.32373,-0.06563 -0.68994,-0.04248 -1.01953,-0.02842z" fill="#d9ae48"/><path d="M204.19775,140.55703c0.08643,-0.15015 0.19922,-0.37866 0.32666,-0.5064c0.65039,-0.65361 2.11523,-0.34014 2.93701,-0.26836c1.17627,0.09521 2.37451,0.10254 3.54346,0.23379c1.55127,0.17417 3.00586,0.53848 4.57764,0.48647c0.62842,0.00161 1.19824,-0.03105 1.81494,-0.15308l0.2168,-0.07354c0.33252,0.46187 0.43359,0.74238 1.0459,0.83848c0.90381,0.14194 2.39795,0.15645 3.15234,0.71455c-1.125,0.53584 -2.83154,-0.0022 -4.08398,0.32183c-0.71191,-0.22222 -1.59521,-0.1043 -2.34668,-0.19453l-7.13086,-0.8269c-1.4165,-0.17051 -2.58984,-0.61816 -4.05322,-0.57231z" fill="#d9ae48"/><path d="M248.71729,88.71958c0.92139,0.075 1.10303,-0.72847 1.68164,-0.49907l0.06885,0.31392c-0.19189,0.22559 -0.39111,0.42041 -0.60937,0.61875c-0.03369,0.12554 -0.0249,0.27231 -0.10254,0.37661c-0.39404,0.53057 -3.375,2.59072 -4.13818,3.11045c-0.25635,0.17446 -0.15967,0.07471 -0.31641,0.32212c-1.3623,0.6186 -2.29541,1.85713 -3.58008,2.56626c-0.93018,-0.00542 -1.43555,0.80859 -2.18994,1.2542c-1.17041,0.37983 -1.396,0.99375 -2.77148,0.94644c-0.10254,-0.32651 -0.28564,-0.56367 -0.47461,-0.84521c0.78369,-0.02563 1.33447,-0.69595 2.12842,-0.84976c0.99902,-1.03828 2.05518,-1.45137 3.30176,-2.09897c0.27539,-0.10049 0.20801,-0.04746 0.40137,-0.20522c0.71045,-0.57847 1.2627,-1.14902 2.16064,-1.42661c0.50537,-0.41396 0.95654,-0.88975 1.47656,-1.28745c1.01514,-0.77725 2.03467,-1.3998 2.96338,-2.29644z" fill="#d9ae48"/><path d="M111.43213,137.73677c3.59722,-0.3917 7.14243,0.07368 10.73408,-0.55635c0.40562,0.20171 0.71235,0.35171 1.17524,0.3832c0.4686,-0.23965 0.58359,-0.44238 0.79365,-0.92373l0.0939,-0.21826l0.19014,0.05068l0.32227,0.58506c-0.02842,0.41865 -0.05552,0.83145 -0.0479,1.25156c-0.69111,0.0063 -1.4458,-0.04893 -2.11729,0.12144l-0.06797,0.01978c-0.15146,0.3416 -0.16816,0.42114 -0.55078,0.54624c-0.50303,0.16465 -1.29404,0.06621 -1.81948,0.05654l-0.51167,-0.02637c-1.46074,0.0397 -2.92793,0.01655 -4.38955,0.02095l-2.74438,0.00029l-1.04956,-0.01055c-0.16685,-0.31377 -0.38862,-0.55928 -0.62051,-0.82485c0.21504,-0.13989 0.4103,-0.31406 0.60981,-0.47563z" fill="#d9ae48"/><path d="M115.79473,138.42568c1.33374,0.02109 2.66792,0.01538 4.00151,-0.01685l-0.16992,0.61772c-1.46074,0.0397 -2.92793,0.01655 -4.38955,0.02095z" fill="#6f5b2d"/><path d="M119.79624,138.40884c0.88418,-0.0063 1.83706,-0.07705 2.71201,0.04131c-0.15146,0.3416 -0.16816,0.42114 -0.55078,0.54624c-0.50303,0.16465 -1.29404,0.06621 -1.81948,0.05654l-0.51167,-0.02637z" fill="#362d1f"/><path d="M112.49238,139.0478c0.05522,-0.07793 0.10342,-0.16128 0.16553,-0.23379c0.53452,-0.62183 2.32192,-0.39609 3.13682,-0.38833l-0.55796,0.62183z" fill="#c29c45"/><path d="M41.57593,62.93247c-0.27686,-0.2647 -0.39536,-1.16177 -0.49395,-1.53149c-0.73403,-2.75156 -1.23896,-3.86777 -3.15264,-6.00073c-0.36504,-0.40679 -0.81753,-1.04956 -1.30356,-1.29858c-0.27026,-0.13843 -0.06768,0.03062 -0.3249,-0.24609c0.37397,-0.22866 0.61523,0.21313 1.0374,0.12612c-0.17593,-0.38877 -0.38438,-0.47212 -0.73008,-0.71221l0.01289,-0.18237c0.31406,0.01494 0.59678,0.2395 0.84023,0.42861c0.27407,0.21284 0.38745,0.18018 0.72378,0.22178c1.98003,1.76309 3.08086,3.33311 3.87305,5.87314c0.1522,0.48823 0.42305,1.04736 0.44077,1.5542c0.00732,0.20742 -0.00059,0.41528 -0.00864,0.62256l0.03091,4.68018l-0.5458,-0.28052c-0.27158,-0.44985 -0.196,-0.75996 -0.19219,-1.27852c-0.00264,-0.68716 0.02651,-1.31924 -0.20728,-1.97607z" fill="#d9b04e"/><path d="M41.7832,64.90854c0.16743,-0.8335 -0.13901,-1.82256 0.17153,-2.6105c0.1374,-0.34849 0.21445,-0.36064 0.53555,-0.51064l0.03091,4.68018l-0.5458,-0.28052c-0.27158,-0.44985 -0.196,-0.75996 -0.19219,-1.27852z" fill="#d9ae48"/><path d="M143.90171,38.0792c0.40474,0.15938 0.47622,0.16289 0.71528,0.51841c0.02227,0.44692 -0.09214,0.66665 -0.27466,1.05454c-0.13711,0.29121 -0.23657,0.59165 -0.33765,0.89648c-0.5981,1.41797 -1.14185,2.8519 -1.77686,4.25405c-0.5937,1.31104 -2.51924,4.7521 -2.69795,5.88413c-0.24902,0.17827 -0.19102,0.18589 -0.53188,0.18032l-0.41909,-0.80171l0.22998,-0.54624c-0.03193,-0.43916 0.08262,-0.85093 0.16626,-1.28086l0.23628,-0.21152l0.36372,-0.28608c0.02754,-0.58638 0.03779,-0.83247 0.40752,-1.2876c0.48647,-0.5502 2.05488,-4.03418 2.36602,-4.85186c0.14048,-0.36914 0.14634,-0.77183 0.14839,-1.16206c0.02007,-0.04629 0.03076,-0.09771 0.06006,-0.13872c0.51636,-0.72217 0.76362,-1.54717 1.34458,-2.22129z" fill="#d9ae48"/><path d="M138.80889,49.51919c0.38438,0.21328 0.55005,0.23042 0.6605,0.68071c0.03076,0.12524 0.0479,0.35259 0.0605,0.48691c-0.24902,0.17827 -0.19102,0.18589 -0.53188,0.18032l-0.41909,-0.80171z" fill="#e2bb54"/><path d="M153.83203,29.79243l-0.01465,0.18354l0.11426,0.10752l0.22998,-0.43813c-0.03955,-0.19263 -0.08057,-0.36782 -0.14941,-0.55269c-0.01904,-0.04878 -0.03955,-0.09683 -0.05859,-0.14517c0.4541,-0.27231 1.14111,-0.34468 1.52051,-0.67324c0.03955,-0.03486 0.07178,-0.07881 0.1084,-0.1166c0.11279,-0.11235 0.22852,-0.22104 0.34131,-0.33267l-0.26807,0.89092c-0.48486,0.07031 -0.95801,0.0772 -1.33887,0.41821c0.1626,0.31934 0.27246,0.34937 0.60498,0.48325c0.07617,0.03032 0.15527,0.04863 0.23291,0.0728c-0.31787,0.37529 -0.65918,0.5874 -0.5918,1.11636c0.1626,1.29727 1.28906,1.85303 1.11182,3.31172l0.15967,0.40356c0.42041,0.2811 0.479,0.45601 0.646,0.92109c0.64307,1.77788 2.04492,3.40518 2.31885,5.2938l0.05566,0.47637c-0.18311,0.36021 -0.38379,0.71777 -0.51709,1.0998c-0.19189,-0.22866 -0.34424,-0.49673 -0.50684,-0.74707c-0.71045,-1.65117 -1.73145,-3.44663 -2.20898,-5.15801c-0.09961,-0.35493 -0.14648,-0.52734 -0.43506,-0.78369c-0.1875,-0.44546 -0.21533,-0.86177 -0.25635,-1.33989c-0.20654,-0.1585 -0.36914,-0.33311 -0.54346,-0.52573c-0.16846,-0.85107 -0.4248,-1.63462 -0.9126,-2.35781c-0.1626,-0.24038 -0.08496,-0.61143 -0.08057,-0.90234c0.25781,-0.24434 0.29736,-0.3854 0.43799,-0.70591z" fill="#d9ae48"/><path d="M157.83105,41.56582c0.0293,-0.11909 0.08496,-0.37368 0.13623,-0.479c0.16699,-0.34277 0.50537,-0.30073 0.83203,-0.3501l0.05566,0.47637c-0.18311,0.36021 -0.38379,0.71777 -0.51709,1.0998c-0.19189,-0.22866 -0.34424,-0.49673 -0.50684,-0.74707z" fill="#e2bb54"/><path d="M47.62676,137.10073c0.11001,-0.41895 0.15439,-0.9728 0.31421,-1.35791l0.24873,-0.05918c0.69565,2.0874 1.22563,4.21934 1.86914,6.3208c0.38979,1.2731 0.96211,2.54971 1.26123,3.8417c0.09917,0.42817 0.08569,0.88872 0.08247,1.32524l0.18179,0.06738l0.30425,0.23291c-0.23452,0.43066 -0.69302,0.74854 -0.82822,1.2041l-0.5978,-0.5332c-0.66416,-0.83057 -0.4062,-1.94766 -0.65859,-2.92178c-0.25005,-0.96489 -0.81929,-1.83882 -1.08955,-2.80327c-0.48955,-1.74712 -0.76875,-3.54331 -1.08765,-5.3168z" fill="#d9ae48"/><path d="M252.91699,135.19424c0.40283,-0.51094 0.3208,-0.97456 0.47607,-1.552c0.4541,-1.68926 2.14453,-8.58809 2.83154,-9.5064l0.81445,0.57817c0.04688,0.56294 0.00879,0.8877 -0.19922,1.41108c-0.41162,1.03975 -0.59619,2.23491 -0.89941,3.3189c-0.62842,2.24092 -1.4458,4.50835 -1.87061,6.79556c-0.04102,0.22222 -0.07617,0.45176 -0.28125,0.59019c-0.06738,0.04468 -0.14502,0.06973 -0.2168,0.10474c-0.48047,-0.48662 -0.17578,-1.19004 -0.65479,-1.74023z" fill="#d9b04e"/><path d="M158.85498,41.21309c0.13916,0.11118 0.28857,0.22192 0.38379,0.37778c0.41016,0.68071 3.87158,7.97051 3.92578,8.28281c0.04395,0.25327 0.01611,0.54961 -0.00293,0.80669l0.05859,0.1938c-0.16553,0.35508 -0.31201,0.71206 -0.56396,1.01704l-0.35742,-0.67983c-0.79102,-1.24526 -3.41162,-6.96006 -3.67236,-8.13823c-0.06445,-0.2918 -0.13477,-0.49644 -0.28857,-0.76025c0.1333,-0.38203 0.33398,-0.7396 0.51709,-1.0998z" fill="#d9ae48"/><path d="M162.29883,51.21138c0.07471,-0.35918 0.15674,-0.54712 0.37793,-0.83979l0.25635,-0.03296l0.22852,0.34175l0.05859,0.1938c-0.16553,0.35508 -0.31201,0.71206 -0.56396,1.01704z" fill="#e2bb54"/><path d="M41.57593,62.93247c0.23379,0.65684 0.20464,1.28892 0.20728,1.97607c-0.00381,0.51855 -0.07939,0.82866 0.19219,1.27852l0.5458,0.28052c-0.04512,1.85142 -0.75688,3.59062 -1.85054,5.0814c-0.50405,0.68701 -1.08809,1.2791 -1.27456,2.13589c-0.30366,0.27231 -0.55518,0.25767 -0.93281,0.33164c-0.26133,0.05127 -0.16992,0.03149 -0.41616,0.23145c-0.05728,0.29619 -0.15879,0.51313 -0.27729,0.79028l-0.16626,0.05625c-0.075,-0.60088 0.00908,-1.16719 0.07896,-1.76411c0.25664,-0.42144 0.58521,-0.69668 0.93003,-1.04194c2.01196,-2.01592 2.96279,-6.63179 2.96338,-9.35596z" fill="#e2bb54"/><path d="M134.45039,58.2873l0.40444,0.06445c0.24375,-0.21812 0.48472,-0.43916 0.7229,-0.66328l0.18867,0.05083c0.16465,0.82646 -1.84673,4.65894 -2.41787,5.5188c-0.25781,0.44883 -0.46143,0.8811 -0.63779,1.36772c-0.12246,0.41484 -0.34043,0.67764 -0.60381,1.00869c-0.71807,0.56807 -0.62476,0.97764 -0.8937,1.7644c-0.43872,-0.38057 -0.58271,-0.58887 -0.77505,-1.13437l0.14253,-0.30747c0.35728,-0.78618 0.69697,-1.87939 1.31016,-2.48936l0.1938,-0.47681l0.05332,-0.09536c0.41382,-1.55098 1.99819,-3.0334 2.20327,-4.60781z" fill="#d9ae48"/><path d="M130.58071,65.95708c0.75542,-0.16685 0.87715,-0.80479 1.32144,-0.68892l0.20479,0.36636c-0.71807,0.56807 -0.62476,0.97764 -0.8937,1.7644c-0.43872,-0.38057 -0.58271,-0.58887 -0.77505,-1.13437z" fill="#e2bb54"/><path d="M268.10303,84.94761l-0.34277,-0.15264c-0.9917,-1.14082 0.06738,-2.14424 0.38525,-3.29458c0.13916,-0.50815 0.04248,-1.14038 0.04102,-1.66597c-0.00293,-1.09585 0.23584,-1.33608 0.98438,-2.10498c0.55225,-0.56733 0.95215,-0.91611 1.68604,-1.23398c-0.22705,0.2354 -0.45117,0.45659 -0.62695,0.73521l0.16699,0.2187c0.56982,0.07397 1.25244,0.09023 1.78564,0.30278c-0.58301,0.62959 -1.2085,0.58096 -2.01562,0.61333c-0.14795,0.00601 -0.29736,0.01113 -0.44531,0.01553c0.00879,1.71943 -0.2666,4.86006 -1.41504,6.24053c-0.13623,0.16436 -0.07764,0.08672 -0.20361,0.32607z" fill="#d9ae48"/><path d="M41.7665,116.36587c0.02798,-0.55327 -0.0063,-1.17656 0.2373,-1.68267l0.24595,-0.11587c0.81797,0.8502 0.92725,5.32646 2.4082,7.17026l-0.06167,1.15093l0.18105,0.77622c-0.09346,0.39609 -0.07236,0.55518 -0.39111,0.82192l-0.32666,0.02212c-0.04438,-0.31113 -0.08818,-0.52427 -0.24229,-0.79966c-0.74736,-0.90703 -2.00347,-6.05728 -2.05078,-7.34326z" fill="#d9ae48"/><path d="M43.81729,123.70913c0.15059,-0.35771 0.25986,-0.7292 0.57026,-0.98042l0.20874,0.15981l0.18105,0.77622c-0.09346,0.39609 -0.07236,0.55518 -0.39111,0.82192l-0.32666,0.02212c-0.04438,-0.31113 -0.08818,-0.52427 -0.24229,-0.79966z" fill="#e2bb54"/><path d="M221.86084,142.7064c0.33252,-0.47988 0.54053,-0.63223 1.11914,-0.73579c1.50586,-0.26895 3.24609,-0.00996 4.52783,0.79878c0.01172,0.00762 0.02637,0.01172 0.03955,0.01758c1.01514,0.01611 2.0376,-0.01011 3.03369,0.20786c0.31055,0.09463 0.60352,0.12773 0.91699,0.19526c0.01904,0.00396 0.03369,0.01802 0.0498,0.02695c-0.24609,0.33779 -0.39111,0.57231 -0.51562,0.98042c-0.43066,0.06504 -0.91699,0.06328 -1.35205,0.04219c-0.76318,-0.03691 -1.17041,-0.14487 -1.68164,-0.7248l-0.77051,0.02388c-0.87158,-0.01494 -1.72266,-0.03105 -2.5752,-0.22793c-1.00488,-0.23188 -1.72705,-0.57158 -2.79199,-0.60439z" fill="#e2bb54"/><path d="M230.58105,142.99482c0.31055,0.09463 0.60352,0.12773 0.91699,0.19526c0.01904,0.00396 0.03369,0.01802 0.0498,0.02695c-0.24609,0.33779 -0.39111,0.57231 -0.51562,0.98042c-0.43066,0.06504 -0.91699,0.06328 -1.35205,0.04219c-0.76318,-0.03691 -1.17041,-0.14487 -1.68164,-0.7248c0.67529,-0.01406 1.55273,0.09375 2.18848,-0.11587c0.30176,-0.09917 0.25635,-0.14355 0.39404,-0.40415z" fill="#d9b04e"/><path d="M44.77734,123.66475c0.14751,0.43271 -0.1645,1.00313 0.07603,1.27339l0.61289,0.13755c0.68145,1.54526 0.13462,3.49937 1.40962,4.82095c0.13022,0.46465 0.16392,1.2123 -0.03105,1.66348c-0.05771,0.13374 -0.03794,0.11309 -0.12656,0.14941c-0.34673,-0.49307 -0.63794,-1.17422 -1.17686,-1.46118c-0.02783,-0.15908 -0.08804,-0.44209 -0.16875,-0.59194c-0.16567,-0.30791 -0.30923,-0.46392 -0.37544,-0.81504c-0.27041,-1.43599 -1.01279,-2.88516 -0.93765,-4.33257l0.32666,-0.02212c0.31875,-0.26675 0.29766,-0.42583 0.39111,-0.82192z" fill="#d9b04e"/><path d="M147.0293,31.22109l0.2915,0.02505c0.23438,0.38687 0.32813,0.78604 0.20508,1.23062c-0.12598,0.45059 -1.33521,3.78809 -1.50176,4.04546c-0.179,0.50596 -0.5937,0.78882 -0.78267,1.29756c-0.44121,-0.23584 -0.57832,-0.63296 -0.78926,-1.06084c0.11851,-0.16274 0.0728,-0.08115 0.15776,-0.28579c0.25591,-0.6167 0.6356,-1.14873 0.8562,-1.77261c-0.01157,-0.29795 -0.04248,-0.5811 0.06753,-0.86558c0.35244,-0.91128 0.80156,-1.91646 1.49561,-2.61387z" fill="#d9ae48"/><path d="M40.24453,76.92715c0.36738,0.93984 4.22402,4.80952 5.12622,5.17808c0.05947,0.02432 0.12187,0.04014 0.18281,0.06006c-0.06108,0.21284 -0.10049,0.38306 -0.24023,0.56089c-0.12993,0.16538 -0.27026,0.1103 -0.4667,0.12173c-1.67168,-0.67749 -4.35586,-3.80259 -5.43706,-5.33877c0.21987,-0.27524 0.53232,-0.4144 0.83496,-0.58198z" fill="#e2bb54"/><path d="M97.39937,101.57871c0.49922,-0.14546 1.01587,-0.15762 1.51479,-0.32241c0.6627,-0.21885 1.0897,-0.61479 1.80498,-0.75044c0.41558,0.13359 0.75117,0.23628 1.096,0.51958c-1.56812,1.24614 -3.28506,0.88813 -4.98809,1.59141c-0.65859,0.27202 -2.65928,1.31895 -3.2562,1.35908c-0.37676,0.0252 -0.94072,-0.20962 -1.2895,-0.35273c0.07456,0.00498 0.14897,0.01582 0.22368,0.01479c0.38071,-0.00557 0.56177,-0.13652 0.88286,-0.31875l0.23848,-0.43359l1.2564,-0.0876c0.22192,-0.27202 0.43315,-0.40884 0.73447,-0.58579c0.76626,-0.0728 1.22769,-0.06006 1.78213,-0.63354z" fill="#d9ae48"/><path d="M265.51611,90.20317c0.38379,0.48823 0.42041,1.14141 0.52588,1.73848l-0.01465,1.16074c-0.03809,1.06333 -0.81885,1.7105 -0.76025,2.71626c-0.55225,0.44297 -0.70459,0.8896 -0.9126,1.53779c-0.1084,0.33604 -0.01025,0.18486 -0.2959,0.42876l-0.26074,-0.16963c-0.46143,-1.06479 1.19092,-4.73789 1.42822,-6.08745c0.00879,-0.05522 0.01758,-0.11089 0.02637,-0.16626z" fill="#d9ae48"/><path d="M265.51611,90.20317c0.38379,0.48823 0.42041,1.14141 0.52588,1.73848l-0.01465,1.16074l-0.58887,-0.38906c-0.28125,-0.42817 -0.20654,-0.86338 -0.18604,-1.35146z" fill="#e2bb54"/><path d="M194.93994,96.90396c0.3999,0.15732 0.61377,0.29883 0.93457,0.58403c1.3374,1.18813 3.2373,1.5583 4.43115,2.9064c-0.33838,0.22646 -0.66064,0.4144 -0.93018,0.72261c-0.04834,-0.15293 -0.12744,-0.21797 -0.23437,-0.33413c-1.1748,-0.26499 -2.96924,-1.30371 -3.79541,-2.16152l0.24756,-0.35757c-0.01025,-0.51929 -0.52441,-0.7563 -0.65332,-1.35981z" fill="#d9b04e"/><path d="M256.53662,122.72871c0.02197,-0.22383 0.00293,-0.13462 0.05859,-0.34131c0.42041,-1.55669 0.57568,-3.16655 1.21289,-4.66099c0.0542,0.57129 0.04688,1.21113 0.33105,1.72046l0.42627,0.31025c0.01611,0.60352 -0.10547,0.97646 -0.32959,1.53179c-0.34717,0.86016 -0.33105,1.79019 -0.98145,2.47881l-0.21533,0.94629l-0.81445,-0.57817c0.16406,-0.46304 0.23438,-0.92344 0.31201,-1.40713z" fill="#d9b04e"/><path d="M256.53662,122.72871l0.33545,-0.01392c0.18018,0.29121 0.17725,0.52646 0.27979,0.83774c0.02637,0.07544 0.06885,0.14355 0.10254,0.21519l-0.21533,0.94629l-0.81445,-0.57817c0.16406,-0.46304 0.23438,-0.92344 0.31201,-1.40713z" fill="#e2bb54"/><path d="M266.71875,87.47241c0.01025,-0.7084 -0.06152,-1.68062 0.32373,-2.30127l0.20068,0.03721l0.15381,0.45c0.01758,0.60601 -0.03369,1.25479 0.22266,1.81465c-0.13184,0.32461 -0.15088,0.58945 -0.18164,0.93369c-0.05273,0.60791 -0.14502,0.93003 -0.55664,1.39585c-0.02051,0.05317 -0.04395,0.10503 -0.06006,0.15952c-0.08203,0.26821 -0.08789,0.49175 -0.1084,0.76772c-0.03809,0.50859 -0.07617,0.76362 -0.49658,1.09131c-0.05566,0.04336 -0.11572,0.08042 -0.17432,0.12056c-0.10547,-0.59707 -0.14209,-1.25024 -0.52588,-1.73848c0.36328,-0.78384 0.38818,-1.58145 0.87598,-2.33188c0.07617,-0.15732 0.20801,-0.27144 0.32666,-0.39888z" fill="#d9b04e"/><path d="M58.76528,93.24097c0.3665,0.09961 0.61772,0.22295 0.9416,0.4188c0.72349,0.43784 2.17207,1.63242 2.81807,1.8416c0.12275,0.59912 0.27422,0.65728 0.71074,1.0623l-0.0353,0.16333c-0.25679,0.08188 -0.29326,0.12495 -0.57437,0.06108c-0.99434,-0.22603 -3.65654,-1.78843 -4.18169,-2.65254c0.2959,-0.29312 0.2562,-0.49805 0.32095,-0.89458z" fill="#d9b04e"/><path d="M137.49653,51.90176c0.6394,-0.48208 0.46802,-1.28789 1.08237,-1.83633l0.41909,0.80171c0.34087,0.00557 0.28286,-0.00205 0.53188,-0.18032l-0.06958,0.34673c-0.1686,0.09624 -0.35728,0.16377 -0.50581,0.28887c-0.28447,0.23921 -1.52915,3.79688 -1.89199,4.51948c-0.37896,-0.34365 -0.44634,-0.77695 -0.57568,-1.25098c0.04102,-0.37017 0.12012,-0.7415 0.18267,-1.10903l0.15469,-0.10635c0.3876,-0.39434 0.45703,-0.6646 0.55898,-1.20161z" fill="#d9ae48"/><path d="M261.33545,76.87456c0.70313,-0.04219 0.79395,-0.16099 1.37109,-0.5751l0.3999,0.22852c-0.88037,0.97515 -3.15234,3.90908 -4.32568,4.17363c-0.17285,-0.346 -0.16699,-0.3249 -0.0498,-0.6939c0.35156,-0.30615 0.57715,-0.41001 0.64893,-0.90322c0.01465,-0.09272 0.01172,-0.18691 0.01758,-0.28037c0.46143,-0.68335 1.3125,-1.39644 1.93799,-1.94956z" fill="#d9ae48"/><path d="M262.30371,106.37417c-0.26807,0.0293 -0.37207,0.01113 -0.61084,-0.11733c-0.1875,-0.39316 -0.24902,-0.71763 -0.25781,-1.15576c-0.02344,-1.0771 0.5625,-3.08379 1.31982,-3.8877c0.14063,0.27715 0.12012,0.17402 0.15381,0.44912c0.04688,0.37544 0.06738,0.72803 0.18896,1.08999c0.02783,0.08218 0.05859,0.16362 0.08643,0.24536c-0.11133,0.3791 -0.0835,0.75264 -0.1875,1.12134c-0.23437,0.83906 -0.70898,1.35073 -0.69287,2.25498z" fill="#d9b04e"/><path d="M110.82231,138.2124c0.23188,0.26558 0.45366,0.51108 0.62051,0.82485l-1.46191,0.03999l-0.62139,0.10195l-0.10693,-0.00967c-1.66187,-0.21885 -3.94644,0.38745 -5.44775,-0.25195l-0.07969,-0.20142c0.87788,-0.56733 2.89453,-0.3876 3.9457,-0.33926l0.60732,-0.05654l1.35967,0.10254z" fill="#d9ae48"/><path d="M110.82231,138.2124c0.23188,0.26558 0.45366,0.51108 0.62051,0.82485l-1.46191,0.03999c-0.2688,-0.05845 -0.44751,-0.03237 -0.63179,-0.2458l0.28872,-0.40854z" fill="#d9b04e"/><path d="M253.85889,84.34028c0.09375,-0.00776 0.1875,-0.01362 0.28125,-0.02344c0.56689,-0.05977 0.87891,-0.46743 1.48975,-0.53232l0.06006,0.12114c-0.65479,0.90776 -2.59131,3.17915 -3.69287,3.43608c-0.23291,0.05405 -0.33252,-0.02007 -0.54639,-0.09434c-0.104,-0.21489 -0.18311,-0.40239 -0.25781,-0.63164c0.99902,-0.50024 1.85303,-1.51099 2.66602,-2.27549z" fill="#d9ae48"/><path d="M260.84473,111.45073c-0.04102,-0.00454 -0.08203,-0.00425 -0.12305,-0.01348c-0.39404,-0.09126 -0.43652,-0.17197 -0.67529,-0.48296c-0.21973,-1.36494 0.64453,-2.46562 0.82764,-3.77153c0.04102,-0.28799 0.10107,-0.48765 0.23584,-0.75176l0.17285,-0.04424c0.28564,0.53335 0.0791,1.12588 0.35449,1.63066c0.03076,0.05669 0.06592,0.11089 0.09961,0.16626c-0.48633,0.94497 0.11279,2.01475 -0.69727,2.88765c-0.18311,0.19834 -0.11426,0.0854 -0.19482,0.37939z" fill="#d9ae48"/><path d="M25.35088,75.41938c0.93633,0.71968 2.30273,0.2915 2.54927,1.05645l-0.33252,0.7311l0.16245,0.23101l2.20928,0.0772c-0.32842,0.07134 -0.64717,0.13389 -0.96445,0.24697c-0.88813,-0.36357 -1.76235,0.09434 -2.7123,-0.45059c-0.21035,-0.1207 -0.4062,-0.24067 -0.62637,-0.34409c-0.25386,-0.11895 -0.52368,-0.21694 -0.74106,-0.39829c-0.26294,-0.21929 -0.36636,-0.32051 -0.70811,-0.4125l0.00659,-0.43271c0.31611,-0.33516 0.71016,-0.26104 1.15723,-0.30454z" fill="#d9b04e"/><path d="M57.31099,93.7251c-0.92432,-1.2813 -2.66646,-1.79707 -3.54448,-3.13623l0.05537,-0.21387c0.57173,0.0041 0.81519,0.34233 1.41445,0.41675c1.26987,0.39287 2.12827,1.2104 2.95723,2.21777c-0.29399,0.23276 -0.61216,0.4563 -0.88257,0.71558z" fill="#d9ae48"/><path d="M259.90723,110.87417c0.03809,0.87627 0.03662,1.75898 0.26367,2.61152c-0.17578,1.80176 -0.16992,1.66011 -0.86572,3.23306c-0.2959,-0.17388 -0.47168,-0.34644 -0.69434,-0.60645c-0.32959,-1.39453 0.90088,-3.83247 1.29639,-5.23813z" fill="#d9ae48"/><path d="M232.51318,98.9269c0.9624,-0.90981 2.68945,-1.12881 3.77197,-2.04287c0.18896,0.28154 0.37207,0.5187 0.47461,0.84521c-0.3252,0.76406 -0.8291,0.93091 -1.57324,1.2271c-0.49658,0.19746 -1.03271,0.3479 -1.48975,0.62578c-0.3252,-0.33413 -0.76172,-0.4689 -1.18359,-0.65522z" fill="#d9b04e"/><path d="M39.40957,77.50913c-0.1793,-0.09097 -0.08218,-0.03091 -0.30366,-0.22866c-0.81079,-0.72334 -1.9604,-1.84893 -1.94824,-3.02212c0.00498,-0.49292 0.17856,-0.60264 0.52485,-0.92798c-0.06987,0.59692 -0.15396,1.16323 -0.07896,1.76411l0.16626,-0.05625c0.11851,-0.27715 0.22002,-0.49409 0.27729,-0.79028c0.58301,0.68203 2.06338,1.83296 2.19741,2.6792c-0.30264,0.16758 -0.61509,0.30674 -0.83496,0.58198z" fill="#d9b04e"/><path d="M51.58433,147.23877c1.10332,0.09375 1.81553,-0.77388 2.9124,-0.7251l-0.11016,0.3999c0.28535,0.30029 0.63208,0.2959 1.02041,0.34863c-0.12554,0.14063 -0.2291,0.30469 -0.37661,0.42188c-0.16201,0.13037 -3.04863,0.95508 -3.3397,0.97559c-0.20947,0.01611 -0.42041,0.01611 -0.63032,0.01611c0.13521,-0.45557 0.5937,-0.77344 0.82822,-1.2041z" fill="#d9b04e"/><path d="M200.30566,100.39438c0.84229,0.33179 1.62744,0.75249 2.45508,1.11387c0.23438,0.10298 0.31055,0.17578 0.4585,0.37998c-0.37354,0.20757 -0.68115,0.3186 -0.9126,0.69067c-0.6958,-0.6353 -2.0332,-1.18037 -2.93115,-1.46191c0.26953,-0.3082 0.5918,-0.49614 0.93018,-0.72261z" fill="#d9ae48"/><path d="M186.17725,137.77617c0.43799,-0.10283 0.8291,-0.20244 1.28467,-0.17417c1.15869,-0.06226 2.39355,0.36138 3.50391,0.6665l-1.32422,-0.00938c-0.62402,0.04336 -1.50732,-0.08921 -1.94092,0.43726c-0.09521,0.11396 -0.17578,0.23774 -0.26074,0.35903l-0.2124,-0.02827c-0.05127,-0.10063 -0.13623,-0.28228 -0.21094,-0.3624c-0.2915,-0.31128 -0.82764,-0.22031 -1.21729,-0.23262c0.20215,-0.22046 0.28564,-0.37192 0.37793,-0.65596z" fill="#d9b04e"/><path d="M203.78906,102.05303c1.125,-0.03208 1.65527,0.80435 2.729,0.8209l-0.29883,0.51416c-0.25781,0.12876 -0.48193,0.18252 -0.76758,0.19497c-0.67529,0.0293 -1.37256,-0.16714 -1.88379,-0.60952c0.15088,-0.32271 0.17578,-0.57349 0.22119,-0.92051z" fill="#d9ae48"/><path d="M52.26445,88.10303c-0.01846,0.33779 0.05039,0.52749 -0.20303,0.77168c-0.41953,0.10649 -0.61128,0.12832 -0.99961,-0.09609c-0.62842,-0.36313 -1.10156,-1.0374 -1.29478,-1.72295l0.11821,-0.1853c0.28521,0.18633 0.49966,0.3416 0.84419,0.38511c0.07852,0.00981 0.15747,0.01655 0.23628,0.02476c0.41074,0.32813 0.78149,0.68101 1.29873,0.8228z" fill="#d9ae48"/><path d="M231.54785,143.21704c0.90088,0.19775 1.96143,0.24126 2.79492,0.59985l-0.02637,0.24741c-0.87012,0.25825 -1.73145,0.05391 -2.57812,0.31143c-0.2124,-0.10781 -0.47461,-0.13198 -0.70605,-0.17827c0.12451,-0.40811 0.26953,-0.64263 0.51563,-0.98042z" fill="#d9ae48"/><path d="M263.80811,101.0877l-0.41748,-0.06812c-0.37207,-0.33091 -0.48193,-0.76846 -0.50684,-1.25098c-0.02783,-0.5417 0.11133,-1.04604 0.47021,-1.45693l0.23584,0.00747c0.31201,0.50522 0.19336,1.20396 0.20361,1.79854z" fill="#d9ae48"/><path d="M136.48682,54.59092c0.12935,0.47402 0.19673,0.90732 0.57568,1.25098c-0.25562,0.43901 -0.44751,0.99653 -0.92329,1.18564c-0.36694,-0.28755 -0.27422,-0.52705 -0.45923,-0.92051l0.28931,-1.15225l0.10767,-0.15278z" fill="#d9b04e"/><path d="M144.4522,36.75894c0.21094,0.42788 0.34805,0.825 0.78926,1.06084c-0.19497,0.99639 -0.40107,1.76074 -1.08354,2.54546c-0.05229,0.06006 -0.1021,0.12231 -0.15322,0.1834c0.10107,-0.30483 0.20054,-0.60527 0.33765,-0.89648c0.18252,-0.38789 0.29692,-0.60762 0.27466,-1.05454c-0.23906,-0.35552 -0.31055,-0.35903 -0.71528,-0.51841c0.104,-0.55547 0.2064,-0.86807 0.55049,-1.32026z" fill="#d9b04e"/><path d="M192.69141,138.30923c0.53613,-0.00527 0.86719,0.07324 1.32129,-0.22339c0.20068,-0.39111 0.40576,-0.77988 0.58594,-1.18096c0.43799,0.59077 0.72803,1.41108 1.50439,1.57734c-0.69873,0.39316 -2.60596,-0.03486 -3.41162,-0.173z" fill="#d9b04e"/><path d="M252.91699,135.19424c0.479,0.5502 0.17432,1.25361 0.65479,1.74023l-0.13037,0.0186l-0.01465,1.40288l-0.63135,-0.41997c-0.27393,-0.40693 -0.18457,-0.78413 -0.13916,-1.24468c0.02637,-0.52412 0.13184,-0.98921 0.26074,-1.49707z" fill="#d9ae48"/><path d="M257.80811,117.72642c0.14355,-0.34673 0.14502,-0.59722 0.50391,-0.75029c0.27979,0.52866 0.23877,1.11006 0.38379,1.67725l-0.13037,1.10376l-0.42627,-0.31025c-0.28418,-0.50933 -0.27686,-1.14917 -0.33105,-1.72046z" fill="#d9ae48"/><path d="M263.26025,75.38174l0.49805,0.17578l0.07764,0.248c-0.23437,0.25474 -0.47168,0.4916 -0.72949,0.72246l-0.3999,-0.22852c-0.57715,0.41411 -0.66797,0.53291 -1.37109,0.5751c0.35742,-0.39697 0.72217,-0.89927 1.2041,-1.14258z" fill="#d9b04e"/><path d="M54.49673,146.51367c0.44414,-0.08672 0.88667,-0.17563 1.33506,-0.23921c0.23877,0.28755 0.15586,0.5395 0.15483,0.90278l-0.57964,0.08496c-0.38833,-0.05273 -0.73506,-0.04834 -1.02041,-0.34863z" fill="#e2bb54"/><path d="M31.41226,79.42178c0.07544,-0.47446 0.08159,-0.96987 0.4355,-1.32642l0.21665,0.1166c0.12788,0.55737 0.18105,1.01953 -0.13535,1.5353l-0.4355,0.22017z" fill="#d9ae48"/><path d="M203.21924,101.88823l0.56982,0.16479c-0.04541,0.34702 -0.07031,0.5978 -0.22119,0.92051l-1.26123,-0.39463c0.23145,-0.37207 0.53906,-0.48311 0.9126,-0.69067z" fill="#e2bb54"/><path d="M58.19355,93.00952l0.57173,0.23145c-0.06475,0.39653 -0.02505,0.60146 -0.32095,0.89458l-1.13335,-0.41045c0.27041,-0.25928 0.58857,-0.48281 0.88257,-0.71558z" fill="#e2bb54"/><path d="M144.41528,24.25444c0.21021,-0.01187 0.48179,-0.04995 0.68672,-0.00981c0.37266,0.07266 0.43096,0.15674 0.62417,0.44868c-0.06255,0.66094 -0.64336,1.12148 -1.08984,1.5646l0.11982,0.11821l-0.22104,-0.00015l0.06694,-0.06182c0.0501,-0.27217 0.07939,-0.59473 -0.00732,-0.86719c-0.16377,-0.51533 -0.22896,-0.65288 -0.17944,-1.19253z" fill="#e2bb54"/><path d="M202.65527,135.28608c0.49805,0.07485 0.84229,0.16318 1.17334,0.56323c0.03662,0.49834 -0.06299,0.59751 -0.29736,1.02451c-0.26953,-0.11265 -0.67236,-0.26426 -0.89209,-0.45483c-0.31934,-0.27803 -0.32959,-0.3731 -0.35156,-0.76538z" fill="#d9b04e"/><path d="M142.60444,13.655c0.33296,0.16211 0.53438,0.22395 0.7103,0.56833c-0.09302,0.49982 -0.28022,0.62741 -0.61479,0.99948c-0.05903,-0.02725 -0.1188,-0.05317 -0.17725,-0.08174c-0.44531,-0.21782 -0.64468,-0.30923 -0.80332,-0.77229c0.26528,-0.41919 0.45659,-0.48081 0.88506,-0.71377z" fill="#e2bb54"/><path d="M146.23198,20.91929c0.22471,0.05742 0.48677,0.12378 0.69038,0.23936c0.33984,0.19263 0.45996,0.37998 0.5874,0.73506l-0.18164,0.33003c-0.21973,0.03193 -0.48926,0.09434 -0.70898,0.07837c-0.35654,-0.02593 -0.42686,-0.11807 -0.6583,-0.35786c-0.01816,-0.45381 0.06826,-0.63604 0.27114,-1.02495z" fill="#e2bb54"/><path d="M44.20474,95.48291c0.4166,0.31494 0.8291,0.60762 1.21362,0.96299c0.16377,0.4582 0.06313,0.54961 -0.09609,0.99565c-0.34775,-0.06343 -0.79116,-0.41118 -0.98745,-0.71572c-0.28154,-0.43623 -0.19219,-0.76743 -0.13008,-1.24292z" fill="#d9b04e"/><path d="M276.97705,70.37944c0.13623,0.27935 0.26514,0.56909 0.4541,0.81724c0.17432,0.22808 0.36475,0.45059 0.54346,0.67471c0.04248,0.39097 -0.03662,0.51694 -0.19043,0.88579c-0.32812,-0.04746 -0.47314,-0.08628 -0.72656,-0.30425c-0.2124,-0.56572 -0.02783,-1.28115 -0.06885,-1.89683z" fill="#d9b04e"/><path d="M235.94385,104.85352c0.3457,0.14839 0.49951,0.15381 0.71484,0.4812c-0.16113,0.44136 -0.66211,0.67134 -1.03711,0.92109c-0.14502,0.09141 -0.26953,0.12085 -0.43213,0.1667l-0.08496,-0.28828c0.18457,-0.58887 0.3999,-0.854 0.83936,-1.28071z" fill="#d9b04e"/><path d="M151.35352,36.91758c0.45264,0.00938 0.78955,-0.00337 1.19238,0.2376c0.2959,0.40474 0.25342,0.72642 0.24023,1.20088c-0.39111,-0.10166 -0.90381,-0.34043 -1.18506,-0.63105c-0.28857,-0.29927 -0.24316,-0.41235 -0.24756,-0.80742z" fill="#d9b04e"/><path d="M174.06299,84.17358c0.43506,0.07148 0.71045,0.10503 1.04883,0.41865c0.15967,0.43535 0.06445,0.69507 -0.06006,1.11826c-0.42334,0.02197 -0.43359,0.03062 -0.77637,-0.21636c-0.22266,-0.45293 -0.2124,-0.82251 -0.2124,-1.32056z" fill="#d9b04e"/><path d="M222.5625,125.01548c0.16553,0.08628 0.25049,0.1834 0.37939,0.31494c0.1626,0.52383 0.43066,1.13247 0.38818,1.68442c-0.03809,-0.0126 -0.07471,-0.02314 -0.11133,-0.03779c-0.42627,-0.173 -0.73682,-0.3646 -0.93896,-0.78984c-0.04834,-0.48735 0.0791,-0.7481 0.28271,-1.17173z" fill="#d9b04e"/><path d="M256.76221,82.1436c0.31934,0.19951 0.24463,0.14209 0.3252,0.46143c-0.27246,0.49175 -0.60645,0.83921 -0.99902,1.23779c-0.20947,-0.18223 -0.27539,-0.27319 -0.40869,-0.50596l0.09375,-0.3189c0.35742,-0.27363 0.67236,-0.5543 0.98877,-0.87437z" fill="#d9ae48"/><path d="M167.7627,79.02422c0.19629,0.03838 0.27832,0.11426 0.43799,0.22881c-0.06592,0.46978 -0.63867,0.96519 -0.93018,1.36875c-0.31055,-0.10313 -0.29297,-0.04629 -0.49072,-0.34541c0.11279,-0.5168 0.61377,-0.89312 0.98291,-1.25215z" fill="#d9b04e"/><path d="M149.87988,58.43262c0.50098,0.01113 0.84668,0.12407 1.20996,0.47505c0.1875,0.44136 0.17725,0.59355 0.07471,1.04004c-0.06445,-0.02388 -0.1333,-0.03853 -0.19336,-0.07163c-0.53174,-0.29268 -0.98291,-0.86455 -1.09131,-1.44346z" fill="#d9b04e"/><path d="M139.47832,117.51445c0.28696,0.05859 0.43096,0.09331 0.64658,0.29604c0.17534,0.46289 -0.06504,1.01191 -0.19702,1.47275c-0.05698,-0.05625 -0.11748,-0.10913 -0.17065,-0.16875c-0.43315,-0.4853 -0.33354,-1.00371 -0.27891,-1.60005z" fill="#d9b04e"/><path d="M274.09863,54.00659c0.21826,-0.20947 0.56396,-0.2061 0.77783,0.00762c0.21387,0.21357 0.21826,0.55928 0.00879,0.77783c-0.13916,0.14561 -0.34717,0.20449 -0.54199,0.15396c-0.19482,-0.05054 -0.34717,-0.20273 -0.39844,-0.39771c-0.0498,-0.19497 0.00732,-0.40225 0.15381,-0.5417z" fill="#d9b04e"/><path d="M191.64258,109.95586c0.271,0.01963 0.4834,0.23994 0.49219,0.51123c0.01025,0.27129 -0.18604,0.50654 -0.4541,0.5458c-0.20215,0.02959 -0.40283,-0.05889 -0.51709,-0.22764c-0.11426,-0.16875 -0.12305,-0.38818 -0.02051,-0.56484c0.10107,-0.17666 0.2959,-0.27935 0.49951,-0.26455z" fill="#d9b04e"/><path d="M228.99902,128.04551c0.35889,-0.0126 0.71484,-0.00864 1.07373,-0.00425c0.33545,0.24009 0.28564,0.28799 0.35596,0.70137c-0.35889,0.00894 -0.80566,0.07397 -1.12793,-0.10049c-0.20068,-0.10825 -0.22998,-0.39507 -0.30176,-0.59663z" fill="#d9b04e"/><path d="M150.00439,106.32671c0.25342,0.15073 0.34131,0.28374 0.51416,0.51504c0.10254,0.47124 0.05127,0.74766 -0.07617,1.20894l-0.25781,-0.13286c-0.33398,-0.48662 -0.25781,-1.04106 -0.18018,-1.59111z" fill="#d9b04e"/><path d="M247.18799,116.3814c0.21973,0.1519 0.24023,0.20522 0.35449,0.4355c0.02051,0.45249 -0.13623,0.72598 -0.33398,1.11519c-0.15674,-0.16963 -0.29883,-0.35728 -0.44385,-0.53628c0,-0.49556 0.14941,-0.61274 0.42334,-1.0144z" fill="#d9b04e"/><path d="M84.15044,124.83135l0.49731,0.29136c0.23438,0.40181 0.2165,0.44985 0.17593,0.91831c-0.29839,0.06079 -0.37441,0.06929 -0.68394,-0.00469c-0.17812,-0.44707 -0.06401,-0.7355 0.01069,-1.20498z" fill="#d9b04e"/><path d="M93.78574,134.43398c0.01919,0.00732 0.03853,0.01436 0.05771,0.02212c0.37646,0.15103 0.68145,0.16714 0.84565,0.55269l-0.23716,0.44282c-0.28081,0.05464 -0.39287,0.06021 -0.65405,-0.06152c-0.14062,-0.39404 -0.08145,-0.55078 -0.01216,-0.9561z" fill="#d9b04e"/><path d="M133.5772,64.38325c0.18223,-0.19014 0.48398,-0.19717 0.67485,-0.01567c0.19087,0.18149 0.19907,0.48311 0.01831,0.67471c-0.18164,0.19263 -0.48545,0.20098 -0.67734,0.01846c-0.19204,-0.18252 -0.19907,-0.48618 -0.01582,-0.67749z" fill="#d9b04e"/><path d="M63.31904,108.72935c0.21489,0.09492 0.35874,0.202 0.54478,0.34263c0.19233,0.42759 0.08936,0.71279 -0.01714,1.14375l-0.36196,-0.2603c-0.23291,-0.44004 -0.19922,-0.74956 -0.16567,-1.22607z" fill="#d9b04e"/><path d="M158.89893,118.17378c0.14063,0.04556 0.42188,0.11279 0.55078,0.20493c0.33691,0.24067 0.32373,0.43828 0.39844,0.81812c-0.43799,-0.07324 -0.75,-0.02446 -1.03857,-0.375z" fill="#d9b04e"/><path d="M147.23584,79.04941c0.15967,0.20347 0.11426,0.1125 0.20654,0.39741c0.17725,0.54038 0.1084,0.97046 -0.15527,1.45898l-0.25781,-0.31626c-0.13916,-0.52295 0.06592,-1.03491 0.20654,-1.54014z" fill="#d9b04e"/><path d="M108.63384,112.4584c0.21152,-0.12788 0.48633,-0.06548 0.62168,0.14121c0.1355,0.20684 0.08276,0.48369 -0.11909,0.62637c-0.13711,0.09683 -0.31611,0.11118 -0.46685,0.03721c-0.15073,-0.07383 -0.24902,-0.22412 -0.25649,-0.3917c-0.00747,-0.16772 0.0772,-0.32607 0.22075,-0.41309z" fill="#d9b04e"/><path d="M215.78467,112.2876c0.3252,0.09023 0.60938,0.15923 0.88623,0.3665c0.20947,0.15747 0.15674,0.19834 0.18311,0.4355c-0.29443,0.05508 -0.54785,0.06357 -0.84668,0.052c-0.25195,-0.32358 -0.20801,-0.43755 -0.22266,-0.854z" fill="#d9b04e"/><path d="M152.88428,51.03999c0.14063,-0.11396 0.33398,-0.13315 0.49365,-0.04893c0.15967,0.08423 0.25195,0.25547 0.2373,0.43506c-0.01611,0.17944 -0.1377,0.33237 -0.30762,0.38804c-0.20654,0.0668 -0.4292,-0.02227 -0.5332,-0.21182c-0.104,-0.18955 -0.05713,-0.42598 0.10986,-0.56235z" fill="#d9b04e"/><path d="M210.30908,136.98516c0.45557,-0.03325 0.84814,-0.10562 1.26709,0.12217l0.05273,0.36167c-0.47461,0.03589 -0.80859,0.09346 -1.22461,-0.14106z" fill="#d9b04e"/><path d="M204.7998,136.91719c0.22412,-0.09126 0.48193,0.01743 0.57275,0.24287c0.09082,0.22544 -0.01758,0.48193 -0.24316,0.5729c-0.22559,0.09082 -0.48193,-0.01802 -0.57275,-0.24316c-0.09082,-0.22515 0.01758,-0.48149 0.24316,-0.57261z" fill="#d9b04e"/><path d="M54.60234,131.36411c0.11206,0.07456 0.28608,0.18486 0.38027,0.27437c0.30557,0.29077 0.29634,0.43345 0.32915,0.82983c-0.24624,0.01099 -0.42979,-0.02212 -0.66768,-0.08452c-0.19351,-0.35054 -0.08423,-0.63091 -0.04175,-1.01968z" fill="#d9b04e"/><path d="M153.92285,62.07349c0.4292,0.04424 0.62402,0.01904 0.97412,0.28169l0.01904,0.42188c-0.43652,-0.03838 -0.7998,0.04292 -1.10156,-0.29282z" fill="#d9b04e"/><path d="M153.83643,86.40161c0.22559,-0.0687 0.46289,0.05933 0.53027,0.28506c0.06738,0.22588 -0.06299,0.46304 -0.28857,0.52837c-0.22412,0.0646 -0.4585,-0.06357 -0.52441,-0.28696c-0.06738,-0.22339 0.06006,-0.45835 0.28271,-0.52646z" fill="#d9b04e"/><path d="M232.64502,108.6583c0.05713,0.00425 0.11279,0.00571 0.16992,0.0126c0.48926,0.06079 0.6958,0.18325 0.97852,0.56089c-0.41895,0.11572 -0.57715,0.24609 -0.97412,0.04731z" fill="#d9b04e"/><path d="M102.56514,132.46685c0.18398,-0.10562 0.41792,-0.05596 0.54331,0.11514c0.12524,0.17109 0.1021,0.40913 -0.05405,0.55269c-0.11777,0.10825 -0.28696,0.1396 -0.43564,0.08057c-0.14868,-0.05889 -0.25049,-0.1979 -0.26191,-0.35742c-0.01143,-0.15952 0.06958,-0.31143 0.2083,-0.39097z" fill="#d9b04e"/><path d="M185.34521,114.72744c0.30469,-0.01831 0.62842,-0.0709 0.91406,0.06064c0.19189,0.08833 0.17432,0.2666 0.22705,0.45264c-0.37061,0.0353 -0.72803,0.12642 -1.05615,-0.08833z" fill="#d9b04e"/><path d="M151.44434,105.24346l0.33545,0.21885c0.2168,0.45659 0.16113,0.62051 0.11279,1.11299l-0.32812,-0.16479c-0.2168,-0.41865 -0.16699,-0.7188 -0.12012,-1.16704z" fill="#d9b04e"/><path d="M52.45283,134.54458l0.27319,0.16523c0.18413,0.45806 0.05728,0.68555 -0.0501,1.15928l-0.26338,-0.13052c-0.15923,-0.47783 -0.05889,-0.70737 0.04028,-1.19399z" fill="#d9b04e"/><path d="M141.80801,117.721c0.12231,-0.08174 0.27979,-0.08906 0.40913,-0.01904c0.12935,0.06987 0.20947,0.20581 0.20801,0.35288c-0.00146,0.14707 -0.08423,0.28125 -0.21504,0.34863c-0.18691,0.09639 -0.41675,0.03003 -0.52354,-0.15117c-0.10679,-0.18135 -0.05347,-0.4144 0.12144,-0.5313z" fill="#d9b04e"/><path d="M158.96924,90.31787c0.19482,-0.06797 0.41016,0.02827 0.48926,0.21958c0.0791,0.19116 -0.00439,0.41104 -0.19189,0.50112c-0.13037,0.06299 -0.28418,0.04863 -0.40137,-0.03735c-0.11572,-0.08599 -0.17578,-0.22954 -0.15381,-0.37295c0.02197,-0.14326 0.12012,-0.26279 0.25781,-0.3104z" fill="#d9b04e"/><path d="M95.2251,123.57261c0.12056,-0.08628 0.27935,-0.098 0.41118,-0.03018c0.13184,0.06782 0.2146,0.20376 0.21445,0.352c0,0.14824 -0.0832,0.28403 -0.21519,0.35156c-0.18413,0.09434 -0.41001,0.03062 -0.51768,-0.14619c-0.10781,-0.17666 -0.06094,-0.40664 0.10723,-0.5272z" fill="#d9b04e"/><path d="M50.16035,131.63936c0.3353,0.1084 0.55635,0.10371 0.75967,0.40547l-0.1749,0.33955c-0.21123,-0.00264 -0.41528,-0.03486 -0.62461,-0.06182l-0.11836,-0.24463z" fill="#d9b04e"/><path d="M196.86621,174.62695c2.66309,-0.09814 5.1416,2.23535 7.24072,3.6709c0.51563,0.35303 0.80713,0.69287 1.43848,0.82324l7.18506,4.62158c1.17334,0.73975 2.82568,1.40625 3.75732,2.43164c0.2666,0.13037 0.74414,0.27539 0.89502,0.52148c1.96875,1.05469 3.854,2.51807 5.74512,3.73096c2.50195,1.604 5.02588,3.14648 7.50586,4.79297c1.02832,0.68262 2.17383,1.28906 3.03076,2.18262c1.8501,0.4248 3.45117,2.7334 5.07715,3.14648c0.33545,0.16992 0.55957,0.3252 0.83936,0.57715c1.11328,0.99902 3.54346,2.17822 4.94385,3.104l17.96631,11.72461c2.64844,1.75195 5.7832,3.41162 8.00391,5.68799c0.97852,1.08398 0.68701,2.73633 0.66211,4.10449c0.0249,1.73145 0.55078,5.57666 -0.66064,6.87158c-0.93018,1.01953 -8.36572,5.73193 -9.79395,6.38232c-1.58057,0.71484 -2.97949,2.47119 -4.76367,3.05713c-0.08643,0.02783 -0.17285,0.06445 -0.25928,0.09521c-0.40283,0.51709 -0.7998,1.06641 -1.47656,1.20996l-0.50244,0.16113c-0.8877,0.9873 -2.13428,1.6084 -3.2373,2.3291c-2.18701,1.43115 -11.46826,6.96094 -12.72363,8.44775c-0.41162,0.09961 -0.7749,0.2373 -1.13379,0.46143c-1.94971,1.21729 -3.77344,2.6499 -5.69824,3.90967l-13.66553,8.80078c-1.06641,0.7002 -2.7334,2.19873 -3.80127,2.63818c-0.9668,0.09229 -14.35107,9.92285 -15.84082,10.00195c-0.20068,0.01025 -0.57715,-0.27832 -0.73682,-0.38672l-0.24756,-0.00586c-0.70166,-0.23437 -1.05322,-0.61084 -1.56592,-1.11768c-0.17725,-2.35693 -0.0791,-4.77393 -0.08057,-7.13672c-0.0249,-3.57129 -0.00879,-7.14258 0.04541,-10.71387c0.73096,-0.75732 1.38428,-1.47656 2.38623,-1.87207l0.28711,-0.03369c0.01758,-0.01758 0.03516,-0.03516 0.05127,-0.05273c1.29346,-1.44141 3.6167,-2.46826 5.2749,-3.48486c2.56055,-1.56738 5.1709,-3.13623 7.66113,-4.80176c0.46436,-0.3208 1.11621,-0.45703 1.45166,-0.91846c0.59033,-0.26514 1.11328,-0.31641 1.60107,-0.79834l0.32666,-0.37793l0.77637,-0.47168l0.89209,-0.38965l0.51416,-0.41162l0.55518,-0.09668c0.3457,-0.32666 0.73242,-0.62256 1.09863,-0.92578l0.11572,-0.20801c0.87305,-0.25781 1.45313,-0.75879 2.18262,-1.27295l0.41309,-0.25049c0.22266,-0.16406 0.44971,-0.26514 0.69873,-0.38818l1.20703,-0.67383c0.38818,-0.10107 0.41309,-0.1084 0.6665,-0.41895l0.27393,-0.21973l0.60498,-0.46875l0.35303,-0.18018c0.44678,-0.15381 0.66943,-0.26367 1.01074,-0.59033l0.14648,-0.05713c0.22705,-0.22705 0.4834,-0.41455 0.73682,-0.6123l0.17871,-0.18896l0.65918,-0.15381l0.29443,-0.18604l0.50391,-0.38232c0.35449,-0.17871 0.72217,-0.31641 1.09277,-0.45703l0.3999,-0.36475c0.11865,-0.17578 0.32373,-0.34131 0.47461,-0.49365l0.44971,-0.21533c0.58154,-0.2417 0.93018,-0.44824 1.3374,-0.93164l0.10107,-0.06006c0.75146,-0.44238 1.53369,-0.84229 2.29102,-1.27588l0.55078,-0.15527c1.28906,-1.48389 9.10547,-5.71729 11.27197,-7.23633c0.49951,-0.34863 1.25391,-0.75 1.60254,-1.25098c0.03369,-0.26953 0.01172,-0.42187 -0.09375,-0.66797c-0.19336,-0.44971 -1.38281,-0.79395 -1.86475,-0.98877c-0.94629,-0.38086 -1.4502,-1.04736 -2.28369,-1.58643c-1.53223,-0.9873 -3.13916,-1.85889 -4.68164,-2.83154c-1.42969,-0.90234 -2.82129,-2.07715 -4.37842,-2.72168l-0.12012,-0.31934c-0.33252,0 -0.47607,-0.05127 -0.73975,-0.23584c-0.2124,-0.14941 -0.40576,-0.27393 -0.6416,-0.38525l-0.25635,-0.11865c-0.44678,-0.44678 -0.74854,-0.75586 -1.36084,-0.94482l-0.63281,-0.2959l-0.18164,-0.30908l-0.36328,-0.26807c-0.29883,-0.25049 -0.62256,-0.38965 -0.97266,-0.54932c-0.34424,-0.03662 -0.57422,-0.24609 -0.84521,-0.44385c-0.06152,-0.11133 -0.22852,-0.21094 -0.32812,-0.2915l-0.25049,-0.20801l-0.12744,-0.36768l-0.57129,0.01318l-0.20361,-0.08643l-0.59326,-0.38672c-0.09961,-0.29736 -0.28857,-0.31348 -0.55371,-0.46289c-0.646,-0.07178 -1.08838,-0.54639 -1.54248,-0.96973c-0.30615,-0.3999 -1.24805,-0.65625 -1.72119,-0.92432l-0.64307,-0.67676c-0.18311,-0.19922 -0.44238,-0.26221 -0.68994,-0.36182c-0.39551,-0.0498 -0.47754,-0.14941 -0.79687,-0.375l-0.41602,-0.37939c-0.36621,0.00732 -0.53174,-0.28564 -0.91992,-0.39844c-0.5083,-0.30176 -0.854,-0.63281 -1.25684,-1.06348c-0.63281,-0.03369 -0.83057,-0.38232 -1.40918,-0.57422c-0.48926,-0.64014 -0.78223,-0.81152 -1.5835,-0.93457l-0.07764,-0.25488c-0.33691,-0.22412 -0.60498,-0.45557 -0.89795,-0.73828c-0.39697,-0.47168 -1.09277,-0.41748 -1.56445,-0.8877c-0.14502,-0.1377 -0.07324,-0.09668 -0.26367,-0.16406c-0.4834,-0.16992 -0.86279,-0.35889 -1.29199,-0.63574c-0.70312,-0.68701 -1.66699,-1.16895 -2.48877,-1.71387c-2.72754,-1.80908 -5.54883,-3.45117 -8.26904,-5.27197c-0.49805,-0.33398 -1.08398,-0.60352 -1.55566,-0.95508c-0.26221,-0.19482 -0.40576,-0.29736 -0.73096,-0.36914c-0.9126,-0.29736 -1.5498,-1.04736 -2.18555,-1.72852c-0.12891,-0.63281 -0.15967,-1.2583 -0.17578,-1.8999c-0.07764,-3.19482 -0.0249,-6.40576 -0.02783,-9.60205c0,-1.69043 -0.25195,-3.90967 0.12744,-5.53418c0.0791,-0.33984 0.29883,-0.55078 0.5332,-0.79541z" fill="#e3e2d3"/><path d="M216.79248,247.04297c0.08496,0.00146 0.16846,0.00293 0.25342,0.00293c0.2959,0.00146 0.52734,-0.06299 0.80713,-0.1582l0.02783,0.33105c0.37793,0.10254 0.61084,-0.29736 0.99463,-0.16846c-0.2168,0.12012 -0.43359,0.23584 -0.65332,0.3501c-1.875,0.97559 -3.6665,2.31006 -5.46533,3.43359c-2.83008,1.76807 -5.729,3.42334 -8.55908,5.18994c-1.45459,0.9082 -3.78809,2.85059 -5.31299,3.18604c-0.01611,0.00439 -0.0293,0.01611 -0.04541,0.02344c-0.49219,0.375 -0.80127,0.65186 -1.10742,1.19385c-0.37207,0.20361 -0.70752,0.10693 -1.10596,0.04834l-0.17285,0.15088c-0.12305,2.16943 -0.01758,4.37988 -0.00732,6.55371l-0.00146,10.83398c0.30176,0.22559 0.85693,0.75293 1.23047,0.69727c2.04199,-0.30029 11.16943,-7.66553 14.44482,-9.06445c0.07617,0.22705 0.04834,0.104 0.07617,0.36914c0.4292,-0.0249 0.71338,0.04688 1.02246,-0.30176c0.12158,-0.13916 0.23438,-0.39551 0.31934,-0.54932l0.0249,0.06592l-0.16699,0.34277l0.09668,0.19482l-0.05127,0.34277c-0.9668,0.09229 -14.35107,9.92285 -15.84082,10.00195c-0.20068,0.01025 -0.57715,-0.27832 -0.73682,-0.38672l-0.24756,-0.00586c-0.70166,-0.23437 -1.05322,-0.61084 -1.56592,-1.11768c-0.17725,-2.35693 -0.0791,-4.77393 -0.08057,-7.13672c-0.0249,-3.57129 -0.00879,-7.14258 0.04541,-10.71387c0.73096,-0.75732 1.38428,-1.47656 2.38623,-1.87207l0.28711,-0.03369c0.01758,-0.01758 0.03516,-0.03516 0.05127,-0.05273c1.29346,-1.44141 3.6167,-2.46826 5.2749,-3.48486c2.56055,-1.56738 5.1709,-3.13623 7.66113,-4.80176c0.46436,-0.3208 1.11621,-0.45703 1.45166,-0.91846c0.59033,-0.26514 1.11328,-0.31641 1.60107,-0.79834l0.32666,-0.37793l0.77637,-0.47168l0.89209,-0.38965l0.51416,-0.41162z" fill="#edece4"/><path d="M195.01465,260.75244c0.73096,-0.75732 1.38428,-1.47656 2.38623,-1.87207c-0.27686,1.14258 -1.51611,1.05762 -1.66406,1.88086c-0.26514,1.48535 -0.17139,16.73145 0.06738,17.98242c0.21094,0.14648 0.39551,0.25635 0.63428,0.35156l0.17725,0.62549c-0.70166,-0.23437 -1.05322,-0.61084 -1.56592,-1.11768c-0.17725,-2.35693 -0.0791,-4.77393 -0.08057,-7.13672c-0.0249,-3.57129 -0.00879,-7.14258 0.04541,-10.71387z" fill="#bfbdb0"/><path d="M196.86621,174.62695c2.66309,-0.09814 5.1416,2.23535 7.24072,3.6709c0.51563,0.35303 0.80713,0.69287 1.43848,0.82324c-0.1084,0.23145 -0.17871,0.56982 -0.43506,0.65039c-0.74561,0.22998 -1.75635,-0.38232 -2.36719,-0.76758c-1.33301,-0.84229 -2.85205,-1.8501 -3.95068,-2.98242c-0.78369,0.06152 -1.56299,0.11572 -2.34082,0.2373c0.00586,1.72266 0.23584,14.73486 -0.12598,15.19922c-0.24756,-5.03613 0.1084,-10.10449 -0.0498,-15.14648l-0.12891,-0.03223c-0.94922,1.30225 0.2417,12.63574 -0.45703,15.26367c-0.06006,0.67676 -0.04102,1.33594 -0.01904,2.0127c0.61816,0.5083 1.3916,0.9917 1.67432,1.76367c-0.9126,-0.29736 -1.5498,-1.04736 -2.18555,-1.72852c-0.12891,-0.63281 -0.15967,-1.2583 -0.17578,-1.8999c-0.07764,-3.19482 -0.0249,-6.40576 -0.02783,-9.60205c0,-1.69043 -0.25195,-3.90967 0.12744,-5.53418c0.0791,-0.33984 0.29883,-0.55078 0.5332,-0.79541z" fill="#edece4"/><path d="M195.6167,175.75928c0.08203,0.60938 -0.03223,0.95361 -0.25195,1.52197c0.01318,0.04688 0.02783,0.09229 0.04102,0.13916c0.71045,2.49023 0.15381,10.88965 0.28418,14.12256c-0.06006,0.67676 -0.04102,1.33594 -0.01904,2.0127c0.61816,0.5083 1.3916,0.9917 1.67432,1.76367c-0.9126,-0.29736 -1.5498,-1.04736 -2.18555,-1.72852c-0.12891,-0.63281 -0.15967,-1.2583 -0.17578,-1.8999c-0.07764,-3.19482 -0.0249,-6.40576 -0.02783,-9.60205c0,-1.69043 -0.25195,-3.90967 0.12744,-5.53418c0.0791,-0.33984 0.29883,-0.55078 0.5332,-0.79541z" fill="#bfbdb0"/><path d="M234.63428,235.91162c0.4248,0.07324 0.70898,0.02783 1.00488,0.36182c-0.22412,0.80713 -3.5918,2.70996 -4.54395,3.26074c-1.3418,0.7749 -2.39209,1.24365 -3.95654,0.89941l0.29443,-0.18604l0.50391,-0.38232c0.35449,-0.17871 0.72217,-0.31641 1.09277,-0.45703l0.3999,-0.36475c0.11865,-0.17578 0.32373,-0.34131 0.47461,-0.49365l0.44971,-0.21533c0.58154,-0.2417 0.93018,-0.44824 1.3374,-0.93164l0.10107,-0.06006c0.75146,-0.44238 1.53369,-0.84229 2.29102,-1.27588z" fill="#edece4"/><path d="M233.66455,197.40234c1.8501,0.4248 3.45117,2.7334 5.07715,3.14648c-0.07617,0.26367 -0.1333,0.42773 -0.31201,0.63721c-0.52295,0.16699 -0.84961,0.04395 -1.32129,-0.18457c-0.87158,-0.42334 -4.07959,-2.40234 -4.35205,-3.19775l0.16113,-0.24902z" fill="#edece4"/><path d="M255.67969,242.15332l-0.375,-0.1626c-0.20508,0.13037 -0.30762,0.19189 -0.55078,0.24463l0.13623,-0.43359l0.07471,0.04834l-0.4248,-0.08643c1.90869,-1.23779 3.91699,-3.00293 5.97656,-3.92432l-0.02051,0.18164c-0.32959,0.18018 -0.61377,0.32227 -0.85693,0.61816l0.07471,0.17139l0.4834,0.11865c0.57275,-0.22998 0.25928,-0.53174 0.70605,-0.87158l0.10254,0.22852l-0.30322,0.71484c-1.58057,0.71484 -2.97949,2.47119 -4.76367,3.05713c-0.08643,0.02783 -0.17285,0.06445 -0.25928,0.09521z" fill="#edece4"/><path d="M270.56104,225.44238l0.59619,0.30469c0.0249,1.73145 0.55078,5.57666 -0.66064,6.87158c-0.06738,-2.37891 0.07178,-4.7915 0.06445,-7.17627z" fill="#bfbdb0"/><path d="M270.49512,221.64258c0.97852,1.08398 0.68701,2.73633 0.66211,4.10449l-0.59619,-0.30469c0.01758,-1.2627 -0.0498,-2.53418 -0.06592,-3.7998z" fill="#bfbdb0"/><path d="M253.70068,243.52441c-0.47314,-0.104 -0.65771,-0.06152 -0.95801,-0.45703l0.09082,-0.30908c0.33252,-0.18311 0.41309,-0.18896 0.79541,-0.1875c0.44092,0.26953 0.41455,0.29443 0.57422,0.79248z" fill="#edece4"/><path d="M226.81494,213.90381l0.13037,-0.62402c0.35889,-0.22852 0.43506,-0.21094 0.86719,-0.20801l0.32813,0.19043l0.05859,0.30322c-0.24463,0.24902 -0.4834,0.25928 -0.81299,0.3252z" fill="#edece4"/><path d="M85.11797,186.39404c0.9728,-0.95215 16.93535,-11.34814 17.99956,-11.71582c0.48384,-0.16699 1.14009,-0.13037 1.57456,0.15381c0.06914,0.04541 0.13052,0.10254 0.19687,0.15234c0.31582,0.23584 0.50625,0.37354 0.6709,0.75c0.29502,0.34277 0.47095,0.58447 0.5354,1.03857c0.37866,2.6792 0.10752,5.94141 0.10664,8.67334c-0.00073,2.63965 0.21812,5.50635 -0.04321,8.12256c-0.03633,0.36328 -0.14692,0.62109 -0.43799,0.85547c-0.12378,0.09961 -0.19307,0.14063 -0.32095,0.22119c-0.66211,0.06738 -3.28682,2.11377 -4.09893,2.625l-9.42144,5.85938c-0.75996,0.46729 -1.63154,0.71338 -2.3896,1.19238c-1.88379,1.18945 -3.53862,2.6792 -5.60112,3.58301c-1.94121,0.78516 -8.68389,5.9209 -10.09907,5.9707c-0.03281,0.04102 -0.06519,0.0835 -0.09858,0.12451c-1.15693,1.42822 -4.31104,2.93701 -5.99561,3.96533c-2.96953,1.81348 -5.85645,3.76025 -8.80459,5.60303c-0.88711,0.55518 -1.86943,0.96387 -2.74541,1.52783c-0.40518,0.26074 -0.69741,0.64307 -1.08354,0.90088c-0.52075,0.34717 -1.14507,0.54053 -1.64517,0.92285c-0.27788,0.2124 -0.33164,0.31348 -0.43403,0.62988c0.45498,0.60791 1.67974,0.81738 2.35151,1.19824c1.18433,0.6709 2.28281,1.5791 3.43447,2.31592c1.41899,0.9082 4.63755,2.51807 5.66367,3.55078l0.21577,0.09668c0.19321,0.31348 5.15244,3.14355 6.00029,3.65332c7.90444,4.75488 15.66255,9.74707 23.52656,14.56494c3.39624,2.08008 9.06548,4.97168 11.84575,7.65234c0.3772,1.43555 0.28887,14.87549 0.14897,17.05371c-0.02446,0.38232 -0.03164,0.72656 -0.2417,1.05762c-0.14429,0.22705 -0.36357,0.43945 -0.54902,0.63428c-0.02476,0.03516 -0.046,0.07178 -0.07397,0.104c-0.44019,0.5083 -1.12793,0.96826 -1.82432,0.93311c-0.21636,-0.01172 -0.34146,-0.03223 -0.53013,-0.12891c-1.92217,-0.99316 -17.42432,-11.16211 -18.41353,-12.2373c-1.97446,-0.53027 -5.34551,-3.91992 -7.34619,-4.70215c-0.78428,-0.22266 -19.66567,-12.68994 -20.75317,-13.75342c-1.03491,-0.33398 -10.32935,-6.54346 -11.15171,-7.45605c-1.07285,-0.2666 -1.59023,-1.00195 -2.46606,-1.59229l-0.23042,-0.15234c-0.25562,-0.00439 -0.19028,0.02783 -0.39126,-0.07617c-0.07471,-0.03955 -0.14619,-0.0835 -0.22002,-0.12451c-1.94517,-1.06348 -3.78252,-2.41992 -5.63071,-3.64746c-1.60488,-1.06641 -3.28184,-2.06104 -4.86665,-3.14941c-0.60073,-0.41162 -0.69609,-0.94189 -0.80625,-1.62451c-0.03398,-0.03223 -0.06958,-0.06299 -0.10195,-0.09521c-0.74575,-0.77197 -0.63091,-2.16357 -0.64277,-3.16553c-0.01465,-1.229 -0.24258,-4.62305 0.30952,-5.61914c0.08335,-0.14941 0.34102,-0.34717 0.4686,-0.47754c0.01348,-0.12891 0.03018,-0.32227 0.05947,-0.44385c0.10781,-0.44824 0.3189,-0.60205 0.67192,-0.86865c1.64795,-1.23926 3.4812,-2.2207 5.23345,-3.29883c1.39658,-0.85986 2.74834,-1.81055 4.11343,-2.72021c8.89014,-5.95166 17.85645,-11.78906 26.89658,-17.51074c0.75776,-0.14355 2.4668,-1.57324 3.21196,-2.06543c1.56738,-1.03564 13.5353,-9.01465 14.22319,-9.06152z" fill="#e3e2d3"/><path d="M85.11797,186.39404c0.34072,-0.00879 0.66431,-0.02637 1.00298,-0.07178c0.12246,0.104 0.13184,0.26074 0.17827,0.41162l0.07251,-0.27539c0.0041,0.2959 0.05098,0.17285 -0.17578,0.41602c-1.74082,1.86475 -6.51196,4.27881 -8.86553,5.79785c-2.80488,1.80908 -6.30161,4.61133 -9.26938,5.89453c-0.28447,-0.33105 -0.28887,-0.62402 -0.37822,-1.0459c0.75776,-0.14355 2.4668,-1.57324 3.21196,-2.06543c1.56738,-1.03564 13.5353,-9.01465 14.22319,-9.06152z" fill="#edece4"/><path d="M42.58945,240.34277l0.14326,-0.45117c0.44063,-0.16553 0.64717,-0.17725 1.08223,0.02051c0.87275,0.39697 1.66919,1.05469 2.44438,1.61426c1.68472,1.00781 3.24771,2.17383 4.89551,3.2373c1.84233,1.18799 4.61763,2.61914 6.1248,4.11914l0.01846,0.18018c-0.28521,0.20068 -0.53672,0.34863 -0.86045,0.48047c-1.03491,-0.33398 -10.32935,-6.54346 -11.15171,-7.45605c-1.07285,-0.2666 -1.59023,-1.00195 -2.46606,-1.59229z" fill="#edece4"/><path d="M105.55986,175.73438c0.29502,0.34277 0.47095,0.58447 0.5354,1.03857c0.37866,2.6792 0.10752,5.94141 0.10664,8.67334c-0.00073,2.63965 0.21812,5.50635 -0.04321,8.12256c-0.03633,0.36328 -0.14692,0.62109 -0.43799,0.85547c-0.12378,0.09961 -0.19307,0.14063 -0.32095,0.22119c0.28608,-4.50293 0.08013,-9.12305 0.08013,-13.6377c0,-1.74609 -0.08452,-3.53613 0.07998,-5.27344z" fill="#bfbdb0"/><path d="M106.0207,260.58252c0.3772,1.43555 0.28887,14.87549 0.14897,17.05371c-0.02446,0.38232 -0.03164,0.72656 -0.2417,1.05762c-0.14429,0.22705 -0.36357,0.43945 -0.54902,0.63428c0.33223,-4.4165 0.10239,-8.97949 0.09595,-13.41211c-0.00205,-1.36816 -0.22485,-3.2168 0.07002,-4.52783c0.06826,-0.30176 0.28521,-0.56836 0.47578,-0.80566z" fill="#bfbdb0"/><path d="M73.7896,213.87598c-0.53672,-0.07031 -0.8124,0.24023 -1.29375,0.18164c0.03091,-0.03955 0.05801,-0.08203 0.09287,-0.11719c0.25518,-0.25781 0.63721,-0.38379 0.99492,-0.35303c0.06416,0.00586 0.12671,0.02197 0.19014,0.03369l0.21885,-0.17578l-0.13257,-0.2124c-0.35991,-0.03809 -0.54053,0.05859 -0.8543,0.2168c-0.27012,0.13477 -0.34819,0.20508 -0.65493,0.20508c0.55049,-0.60498 6.70723,-4.30225 7.79429,-4.85156c-0.35581,0.36475 -0.70093,0.71631 -1.00005,1.13086c0.89722,-0.11719 4.42061,-2.36865 5.22407,-3.05859c0.07354,-0.06299 0.14531,-0.12744 0.21797,-0.19189l0.18237,0.04834c-0.3939,0.32666 -0.62212,0.57568 -0.8291,1.04883c-0.01802,0.04102 -0.03457,0.08203 -0.05171,0.12451c-1.94121,0.78516 -8.68389,5.9209 -10.09907,5.9707z" fill="#edece4"/><path d="M77.19082,263.29688c0.22412,-0.31934 0.33149,-0.53027 0.73535,-0.6416c0.6334,-0.17578 1.42383,0.49072 1.87515,0.84961c0.47871,0.37939 0.88433,0.84814 1.39937,1.18359c1.1458,0.74707 3.81357,1.59521 4.25347,2.896c-0.30439,0.15381 -0.59531,0.30029 -0.91714,0.41455c-1.97446,-0.53027 -5.34551,-3.91992 -7.34619,-4.70215z" fill="#edece4"/><path d="M169.4707,156.72217c0.26514,-0.22119 0.48926,-0.42041 0.83496,-0.49072c1.59814,-0.32959 8.60742,-0.23437 10.42822,-0.06445c0.60498,0.05713 0.75146,0.18311 1.15869,0.60205c0.50244,0.09375 0.71924,0.08057 1.10449,0.43066c0.06592,0.27539 0.14209,0.55078 0.19482,0.8291c0.5332,0.45557 0.68555,0.86572 0.72656,1.56299c0.02783,0.45264 -0.04687,1.24365 -0.35303,1.60107c-0.1084,0.12598 -0.20654,0.19482 -0.33398,0.2959c-0.24023,2.98682 -2.70703,7.55127 -3.71045,10.51758c-0.18164,0.53906 -0.06592,1.18213 -0.23145,1.74463c-0.33691,1.13818 -1.02979,2.15918 -1.40479,3.30029c-0.53027,1.61426 -0.94336,3.28271 -1.53369,4.875c-0.31348,0.84961 -0.75,1.65234 -1.05322,2.50488c-0.21973,0.61816 -0.29736,1.2832 -0.49512,1.91016c-0.44971,1.43262 -1.02246,2.81689 -1.51465,4.2334c-0.2417,0.69727 -0.38086,1.43408 -0.62109,2.12549c-0.09375,0.2666 -0.28564,0.41748 -0.49365,0.59619l-0.06299,0.26807c-0.78516,3.30322 -2.14746,6.6123 -3.33252,9.79541c-0.32812,0.88184 -0.9082,1.875 -1.125,2.75684c-0.08789,0.35449 -0.00732,0.72656 -0.10986,1.08691c-0.30615,1.06787 -0.90234,2.10498 -1.27588,3.1626l-3.01904,8.63965l-5.12842,14.42725c-0.19922,0.57275 -0.03516,1.18945 -0.22266,1.76514c-0.26514,0.80859 -0.82764,1.54834 -1.14404,2.34521c-0.72217,1.82813 -1.10596,3.82031 -1.80322,5.66895c-0.44971,1.19385 -1.36523,2.24414 -1.39893,3.54932c-0.03516,1.36377 -1.01074,2.896 -1.47949,4.22021l-4.25537,12.05566l-3.08086,9.05566c-0.3835,1.12646 -0.66782,2.3584 -1.11006,3.44971c-0.24302,0.60059 -0.58081,1.19678 -0.89297,1.76514c-0.34922,0.63428 -0.14604,1.27588 -0.39287,1.91748c-0.27935,0.72656 -0.64468,1.40039 -0.89897,2.146c-0.98584,2.8916 -4.00474,13.8999 -6.04761,15.37061c-0.4166,0.46582 -0.71572,0.61816 -1.33975,0.66064c-0.60059,0.03955 -1.21875,0 -1.82036,-0.01904c-3.6041,0.20361 -7.3188,0.01318 -10.93184,-0.00586c-0.15176,-0.15088 -0.30029,-0.30615 -0.45366,-0.45557c-0.42803,-0.41602 -0.56338,-0.57861 -0.68584,-1.17773c-0.01479,-0.30469 -0.20771,-0.50684 -0.37368,-0.74707c-0.38115,-0.55225 -0.26309,-1.04883 -0.08086,-1.64795c0.43667,-1.43555 1.21729,-2.75098 1.72925,-4.15869l3.83496,-10.73145c0.93545,-2.60156 1.6771,-5.2749 2.596,-7.88232l9.43667,-26.8418c0.77607,-2.21777 2.68125,-6.27539 3.02256,-8.36719c0.0104,-0.12158 0.01743,-0.29004 0.06416,-0.40137c1.04854,-2.52246 2.24663,-5.17529 2.92998,-7.84131c0.12861,-0.50098 0.21152,-0.69434 0.57422,-1.07666c0.01069,-1.86914 2.03057,-6.16699 2.75259,-8.17529l4.83105,-13.58496c0.82764,-2.34375 1.45605,-4.76514 2.28369,-7.1001c0.26514,-0.75293 0.84814,-1.31836 1.13525,-2.02881c0.21826,-0.54053 0.07178,-1.18945 0.25488,-1.74316c0.35596,-1.08105 1.16895,-2.06836 1.30371,-3.21533c0.11572,-0.99316 0.06885,-1.22314 0.86133,-1.89404c-0.07617,-0.45264 -0.03955,-0.78809 0.08789,-1.22314c0.71484,-2.44189 1.77539,-4.74316 2.63818,-7.13232c1.1543,-3.19043 2.10205,-6.46582 3.24756,-9.65625c0.28564,-0.79687 0.73242,-1.53223 1.03564,-2.32324c0.24023,-0.62842 0.3501,-1.30078 0.55078,-1.94092c0.58447,-1.86328 1.99512,-6.39551 2.83887,-7.98047c0.39551,-0.74268 0.97412,-1.07812 1.75488,-1.32861z" fill="#e3e2d3"/><path d="M157.31689,188.30713c0.40283,0.86279 -0.22119,1.93652 -0.52295,2.76855c-0.19482,0.5376 -1.63477,5.0376 -1.77539,5.10645c-0.23584,0.11572 -0.14795,0.07031 -0.40283,0.22119c-0.20068,0.99023 -0.5083,3.54932 -1.26562,4.18799c-0.06592,0.05566 -0.12891,0.11279 -0.19482,0.16699c-0.05273,0.04395 -0.10693,0.08643 -0.16113,0.12891c0,0.05566 0.00146,0.11133 0,0.16846c-0.03076,1.08691 -0.63135,2.07568 -0.54932,3.13037l0.14502,0.10986c0.37354,-0.34277 0.12744,-1.83105 0.72363,-1.85303c-1.41211,4.68311 -3.31641,9.23584 -4.91309,13.85889l-2.40615,7.10889c-0.23086,0.66797 -0.39346,1.54688 -0.70605,2.1665c-0.10547,0.20801 -0.26851,0.34717 -0.43887,0.49951c-0.68159,2.2998 -1.19604,4.95703 -2.36689,7.04736l-0.07427,-0.03076c0.38701,-1.41797 1.16396,-2.78906 1.47788,-4.19238c0.04893,-0.21973 -0.00117,-0.43799 0.04072,-0.64014c0.01509,-0.07324 0.06401,-0.13477 0.09609,-0.20215l-0.18179,-0.04687c-1.28804,0.87012 -2.26274,8.0376 -3.45308,8.31445c-0.09946,-0.28564 -0.02271,-0.38525 -0.02651,-0.66064c-0.00132,-0.09961 -0.02358,-0.19775 -0.03545,-0.29736c0.0104,-0.12158 0.01743,-0.29004 0.06416,-0.40137c1.04854,-2.52246 2.24663,-5.17529 2.92998,-7.84131c0.12861,-0.50098 0.21152,-0.69434 0.57422,-1.07666c0.01069,-1.86914 2.03057,-6.16699 2.75259,-8.17529l4.83105,-13.58496c0.82764,-2.34375 1.45605,-4.76514 2.28369,-7.1001c0.26514,-0.75293 0.84814,-1.31836 1.13525,-2.02881c0.21826,-0.54053 0.07178,-1.18945 0.25488,-1.74316c0.35596,-1.08105 1.16895,-2.06836 1.30371,-3.21533c0.11572,-0.99316 0.06885,-1.22314 0.86133,-1.89404z" fill="#edece4"/><path d="M120.16113,295.74463c0.07163,0.0293 0.14399,0.05713 0.21475,0.08789c0.34028,0.15088 0.54946,0.4292 0.78135,0.70752c1.52256,0.59912 7.91777,0.19043 10.03579,0.24463c0.08511,0.03076 0.16948,0.06152 0.25518,0.09082c0.46699,0.15234 0.9728,0.13477 1.45928,0.14502l0.06064,0.104c-0.24448,0.09082 -0.48589,0.18457 -0.73564,0.25928c-3.6041,0.20361 -7.3188,0.01318 -10.93184,-0.00586c-0.15176,-0.15088 -0.30029,-0.30615 -0.45366,-0.45557c-0.42803,-0.41602 -0.56338,-0.57861 -0.68584,-1.17773z" fill="#5a5953"/><path d="M169.4707,156.72217c0.26514,-0.22119 0.48926,-0.42041 0.83496,-0.49072c1.59814,-0.32959 8.60742,-0.23437 10.42822,-0.06445c0.60498,0.05713 0.75146,0.18311 1.15869,0.60205c-1.4209,0.14941 -2.95459,0.00879 -4.38867,0.00732c-2.6748,-0.00293 -5.36133,0.06299 -8.0332,-0.0542z" fill="#5a5953"/><path d="M183.19189,158.02881c0.5332,0.45557 0.68555,0.86572 0.72656,1.56299c0.02783,0.45264 -0.04687,1.24365 -0.35303,1.60107c-0.1084,0.12598 -0.20654,0.19482 -0.33398,0.2959c-0.1084,-1.13086 -0.03809,-2.32178 -0.03955,-3.45996z" fill="#bfbdb0"/><path d="M131.19302,296.78467c1.39966,-0.03223 2.79961,-0.04687 4.19956,-0.04248c-0.4166,0.46582 -0.71572,0.61816 -1.33975,0.66064c-0.60059,0.03955 -1.21875,0 -1.82036,-0.01904c0.24976,-0.07471 0.49116,-0.16846 0.73564,-0.25928l-0.06064,-0.104c-0.48647,-0.01025 -0.99229,0.00732 -1.45928,-0.14502c-0.08569,-0.0293 -0.17007,-0.06006 -0.25518,-0.09082z" fill="#807c77"/><path d="M185.79932,138.43213c0.38965,0.0123 0.92578,-0.07866 1.21729,0.23262c0.07471,0.08013 0.15967,0.26177 0.21094,0.3624c-1.00928,0.03047 -2.02588,0.00806 -3.03662,0.0104l-0.12158,-0.60981z" fill="#937c3b"/></g></svg></svg>